<svg width="241" height="241" viewBox="0 0 241 241" fill="none" xmlns="http://www.w3.org/2000/svg">
    <g filter="url(#filter0_d_0_1)">
    <circle cx="118.5" cy="113.5" r="106.5" fill="url(#paint0_linear_0_1)"/>
    </g>
    <path d="M90 75.5417L146.5 122.625L118.25 146.167V52L146.5 75.5417L90 122.625" stroke="#F8F8F8" stroke-width="5" stroke-linecap="round" stroke-linejoin="round"/>
    <path d="M92.8391 179V169.46H89.1491V168.5H97.6391V169.46H93.9491V179H92.8391ZM102.012 179.075C101.342 179.075 100.757 178.95 100.257 178.7C99.7573 178.45 99.3673 178.075 99.0873 177.575C98.8173 177.075 98.6823 176.45 98.6823 175.7V171.125H99.7473V175.58C99.7473 176.42 99.9523 177.055 100.362 177.485C100.782 177.905 101.367 178.115 102.117 178.115C102.667 178.115 103.142 178.005 103.542 177.785C103.952 177.555 104.262 177.225 104.472 176.795C104.692 176.365 104.802 175.85 104.802 175.25V171.125H105.867V179H104.847V176.84L105.012 177.23C104.762 177.81 104.372 178.265 103.842 178.595C103.322 178.915 102.712 179.075 102.012 179.075ZM108.61 179V171.125H109.63V173.27L109.525 172.895C109.745 172.295 110.115 171.84 110.635 171.53C111.155 171.21 111.8 171.05 112.57 171.05V172.085C112.53 172.085 112.49 172.085 112.45 172.085C112.41 172.075 112.37 172.07 112.33 172.07C111.5 172.07 110.85 172.325 110.38 172.835C109.91 173.335 109.675 174.05 109.675 174.98V179H108.61ZM118.309 171.05C118.949 171.05 119.509 171.175 119.989 171.425C120.479 171.665 120.859 172.035 121.129 172.535C121.409 173.035 121.549 173.665 121.549 174.425V179H120.484V174.53C120.484 173.7 120.274 173.075 119.854 172.655C119.444 172.225 118.864 172.01 118.114 172.01C117.554 172.01 117.064 172.125 116.644 172.355C116.234 172.575 115.914 172.9 115.684 173.33C115.464 173.75 115.354 174.26 115.354 174.86V179H114.289V171.125H115.309V173.285L115.144 172.88C115.394 172.31 115.794 171.865 116.344 171.545C116.894 171.215 117.549 171.05 118.309 171.05ZM132.716 179.09C131.926 179.09 131.191 178.96 130.511 178.7C129.841 178.43 129.256 178.055 128.756 177.575C128.266 177.085 127.881 176.52 127.601 175.88C127.331 175.23 127.196 174.52 127.196 173.75C127.196 172.98 127.331 172.275 127.601 171.635C127.881 170.985 128.266 170.42 128.756 169.94C129.256 169.45 129.841 169.075 130.511 168.815C131.181 168.545 131.916 168.41 132.716 168.41C133.506 168.41 134.236 168.545 134.906 168.815C135.576 169.075 136.156 169.445 136.646 169.925C137.146 170.405 137.531 170.97 137.801 171.62C138.081 172.27 138.221 172.98 138.221 173.75C138.221 174.52 138.081 175.23 137.801 175.88C137.531 176.53 137.146 177.095 136.646 177.575C136.156 178.055 135.576 178.43 134.906 178.7C134.236 178.96 133.506 179.09 132.716 179.09ZM132.716 178.1C133.346 178.1 133.926 177.995 134.456 177.785C134.996 177.565 135.461 177.26 135.851 176.87C136.251 176.47 136.561 176.01 136.781 175.49C137.001 174.96 137.111 174.38 137.111 173.75C137.111 173.12 137.001 172.545 136.781 172.025C136.561 171.495 136.251 171.035 135.851 170.645C135.461 170.245 134.996 169.94 134.456 169.73C133.926 169.51 133.346 169.4 132.716 169.4C132.086 169.4 131.501 169.51 130.961 169.73C130.421 169.94 129.951 170.245 129.551 170.645C129.161 171.035 128.851 171.495 128.621 172.025C128.401 172.545 128.291 173.12 128.291 173.75C128.291 174.37 128.401 174.945 128.621 175.475C128.851 176.005 129.161 176.47 129.551 176.87C129.951 177.26 130.421 177.565 130.961 177.785C131.501 177.995 132.086 178.1 132.716 178.1ZM144.279 171.05C144.919 171.05 145.479 171.175 145.959 171.425C146.449 171.665 146.829 172.035 147.099 172.535C147.379 173.035 147.519 173.665 147.519 174.425V179H146.454V174.53C146.454 173.7 146.244 173.075 145.824 172.655C145.414 172.225 144.834 172.01 144.084 172.01C143.524 172.01 143.034 172.125 142.614 172.355C142.204 172.575 141.884 172.9 141.654 173.33C141.434 173.75 141.324 174.26 141.324 174.86V179H140.259V171.125H141.279V173.285L141.114 172.88C141.364 172.31 141.764 171.865 142.314 171.545C142.864 171.215 143.519 171.05 144.279 171.05Z" fill="white"/>
    <defs>
    <filter id="filter0_d_0_1" x="0.6" y="0.6" width="239.8" height="239.8" filterUnits="userSpaceOnUse" color-interpolation-filters="sRGB">
    <feFlood flood-opacity="0" result="BackgroundImageFix"/>
    <feColorMatrix in="SourceAlpha" type="matrix" values="0 0 0 0 0 0 0 0 0 0 0 0 0 0 0 0 0 0 127 0" result="hardAlpha"/>
    <feMorphology radius="1" operator="erode" in="SourceAlpha" result="effect1_dropShadow_0_1"/>
    <feOffset dx="2" dy="7"/>
    <feGaussianBlur stdDeviation="7.2"/>
    <feComposite in2="hardAlpha" operator="out"/>
    <feColorMatrix type="matrix" values="0 0 0 0 0 0 0 0 0 0 0 0 0 0 0 0 0 0 0.25 0"/>
    <feBlend mode="normal" in2="BackgroundImageFix" result="effect1_dropShadow_0_1"/>
    <feBlend mode="normal" in="SourceGraphic" in2="effect1_dropShadow_0_1" result="shape"/>
    </filter>
    <linearGradient id="paint0_linear_0_1" x1="118.5" y1="7" x2="118.5" y2="220" gradientUnits="userSpaceOnUse">
    <stop stop-color="#FF948B"/>
    <stop offset="1" stop-color="#08293B"/>
    </linearGradient>
    </defs>
    </svg>
    