<svg width="222" height="216" viewBox="0 0 222 216" fill="none"
    xmlns="http://www.w3.org/2000/svg">
    <g clip-path="url(#clip0_211_680)">
        <path d="M52.2819 56.6323C40.3668 59.601 33.6798 68.7631 26.598 78.4627C20.6934 86.5536 21.1139 88.5352 21.4612 89.3761C23.3806 94.2351 35.2044 95.2259 43.9351 91.9354C52.4209 88.74 56.7095 81.9726 59.3455 77.8083C60.7019 75.6695 68.972 62.1968 64.464 57.2611C61.7329 54.2631 55.5432 55.7987 52.2637 56.6213" fill="#2F896D"/>
        <path d="M13.7395 84.8828C13.7761 85.0729 14.3647 87.9137 15.6663 88.0928C17.4578 88.3414 18.9897 83.307 20.7848 83.5995C22.1303 83.8152 22.2472 86.7401 23.3441 86.8095C24.8613 86.9009 25.3622 81.5046 27.8411 81.0293C29.9616 80.6271 31.7786 84.1662 32.9596 83.5885C34.3854 82.9121 32.4404 77.6035 34.2428 76.525C35.5444 75.7462 37.4821 77.9874 38.7362 77.1684C40.3558 76.1265 38.5278 71.5417 40.0195 70.7484C40.9956 70.2292 42.2753 71.9183 43.2331 71.3882C44.648 70.6058 42.7396 66.4159 44.5164 64.9681C45.6754 64.0212 47.2 65.2313 48.3663 64.3246C49.8689 63.162 49.8287 59.2317 48.3663 57.9046C43.0832 53.1517 11.758 75.0881 13.6957 84.8718" fill="white"/>
        <path d="M262.737 103.042C251.859 91.6841 238.718 87.5588 223.313 90.6665C219.292 91.4562 215.577 93.5365 211.391 93.7303C208.744 96.2237 205.157 96.8197 202.042 98.3735C197.735 100.253 194.035 103.492 189.162 104.099C186.724 106.418 183.65 107.957 180.332 108.519C176.082 111.642 171.176 113.754 165.986 114.694C161.409 116.57 156.612 117.115 151.727 117.02C145.877 117.27 140.023 116.616 134.372 115.082C129.389 113.641 124.402 112.208 120.354 108.706C114.428 105.73 111.134 100.626 108.966 94.6224C108.867 94.3555 109.284 93.8912 109.467 93.5256C108.187 93.2111 107.982 92.0887 107.719 91.0796C106.352 85.6979 105.46 80.2467 105.573 74.6748C104.059 69.666 105.087 64.5109 104.929 59.4289C104.871 57.6521 107.511 59.2571 108.71 58.4674C107.503 57.4254 104.838 58.9098 104.626 56.9245C104.217 53.0016 102.944 49.1188 103.584 45.0971C101.467 44.0003 101.994 41.6311 101.295 39.9091C99.9828 36.6808 98.2937 33.6938 96.685 30.6263C93.9101 27.1787 90.4185 24.528 86.9672 21.8225L70.8804 14.9454C67.6813 14.5103 64.4859 14.0241 61.2796 13.6548C60.0365 13.5159 59.9524 12.4885 59.4515 11.75C59.1261 12.4118 59.4515 13.6694 58.1097 13.4391C53.6054 12.675 49.1085 13.0004 44.6151 13.4647C44.3702 13.4903 44.096 13.1503 43.8327 12.9821C43.1308 13.2124 42.4434 13.5744 41.7268 13.6548C35.5694 14.3182 29.5375 15.8532 23.812 18.214C13.2021 22.6707 4.02169 29.0615 1.30156 40.9511C-1.74029 54.2227 0.647126 67.0336 7.43281 78.8793C9.08536 81.7639 10.7525 84.729 13.4763 86.6923C17.7393 85.314 25.2708 83.9832 33.1058 78.4625C45.818 69.5051 48.2273 57.3523 49.6898 57.9153C50.5709 58.2553 50.6075 62.9863 49.4668 69.0956C49.7154 69.5124 49.9603 69.9292 50.198 70.3606C51.8213 73.3842 50.9292 75.3366 47.9129 75.5669C46.063 81.8517 43.065 88.4728 38.6338 92.9077C46.2348 91.6756 53.2142 88.2535 59.9963 84.3305C62.731 82.7511 63.188 83.8625 63.6926 86.0964C65.7619 95.1744 66.866 104.285 66.526 113.455C66.3756 117.691 65.9014 121.909 65.1075 126.072C65.0613 126.707 65.0478 127.344 65.0673 127.98C65.4438 132.872 65.0782 137.303 60.1754 140.228C58.1317 141.468 57.4005 144.023 57.0348 146.323C56.8082 147.672 56.2049 148.345 55.1849 148.795C55.0679 148.846 54.9472 148.897 54.8193 148.944C54.9326 148.97 55.0496 148.996 55.1849 149.014C55.9855 149.175 56.7935 149.292 57.0714 150.348C58.3949 155.423 62.2667 157.295 66.9428 158.059C68.3102 158.278 69.0633 158.728 69.1584 160.198C69.2535 161.668 69.524 163.123 69.7251 164.585C71.3411 166.08 71.7067 168.27 72.7596 170.088C78.0025 179.147 86.002 184.811 95.3359 188.913C97.0762 189.677 98.9262 190.214 100.429 191.472C103.273 191.417 104.334 191.622 104.674 193.278C104.674 193.315 104.674 193.348 104.692 193.38C104.724 193.543 104.746 193.708 104.758 193.874C104.76 193.915 104.76 193.957 104.758 193.998C104.759 194.013 104.759 194.028 104.758 194.042C104.791 194.466 104.802 194.953 104.794 195.527C104.75 199.961 106.015 204.188 106.549 208.528C106.71 209.8 107.057 211.087 107.898 211.975C108.288 212.37 108.752 212.683 109.263 212.898C109.775 213.112 110.323 213.224 110.878 213.226C120.406 213.767 129.919 214.487 139.45 215.094C139.615 215.094 139.783 215.116 139.951 215.127C145.216 215.467 146.653 213.723 145.742 208.484C145.099 204.802 144.645 201.098 144.039 197.413C143.724 195.442 144.496 194.554 146.459 194.093C160.56 190.781 171.609 182.807 180.607 171.671C186.891 163.876 191.381 155.01 196.182 146.308C202.989 133.98 211.04 122.544 221.88 113.404C232.241 104.651 243.999 100.812 257.629 103.945C259.98 104.49 262.221 105.697 264.744 105.459C264.404 104.395 263.472 103.81 262.759 103.061M8.95374 52.6067C8.99219 52.3995 9.10902 52.2151 9.27994 52.0919C9.45085 51.9686 9.66269 51.916 9.87142 51.945C10.4235 52.0034 10.4747 52.4568 10.5222 52.8736C10.7013 54.5079 10.8622 56.1421 11.067 58.1347C8.632 56.6723 8.5077 54.7382 8.94277 52.6067M48.6295 38.348C48.0263 38.6295 47.7557 38.0226 47.4413 37.5839C43.4196 31.9937 40.0377 32.2496 36.8387 38.3882C36.59 38.8671 36.473 39.485 35.8003 39.2986C34.9777 39.0755 35.1459 38.3992 35.2483 37.7374C35.7418 34.7467 39.27 31.7999 42.3374 31.8584C44.9223 31.9023 48.3151 34.3665 48.9622 36.6808C49.1341 37.295 49.3607 38.008 48.6295 38.348ZM264.722 105.441C264.723 105.452 264.723 105.463 264.722 105.474L264.748 105.441H264.722Z" fill="#40C49E"/>
        <path d="M69.6849 164.585C71.3009 166.081 71.6701 168.271 72.7231 170.088C77.9623 179.144 85.9618 184.811 95.2957 188.909C97.036 189.673 98.886 190.214 100.389 191.468C99.5075 197.581 98.5826 203.687 97.7709 209.807C97.4565 212.176 96.3341 213.145 93.9211 212.882C90.3271 212.494 86.7149 212.264 83.11 211.968C82.8248 208.089 80.9749 204.923 78.6788 201.91C77.582 200.477 76.339 199.486 74.5548 199.161C72.6719 198.821 71.4581 199.892 70.2443 201.87C69.5496 198.766 67.2938 198.261 65.5243 197.168C65.5243 196.616 65.4987 196.071 65.4877 195.516C65.952 193.552 65.8314 191.563 65.7327 189.578C66.1385 181.107 67.3084 172.76 69.6849 164.6" fill="#328E6F"/>
        <path d="M65.1002 126.072C65.1002 126.708 65.0088 127.348 65.0563 127.98C65.4438 132.869 65.0782 137.304 60.1754 140.228C58.1317 141.468 57.4005 144.027 57.0348 146.323C56.7826 147.829 56.0623 148.498 54.8193 148.941C52.483 149.003 50.1431 149.274 47.8325 148.663L47.1013 148.531C43.5732 147.902 40.279 146.773 37.6613 144.17C36.6124 143.141 35.8353 141.869 35.3995 140.466C34.9638 139.063 34.8831 137.574 35.1647 136.133C35.4463 134.691 36.0813 133.342 37.0129 132.206C37.9444 131.07 39.1433 130.184 40.5021 129.626C44.2313 128.068 48.2164 127.977 52.1576 127.798C56.5449 127.597 60.8774 127.363 65.1002 126.087" fill="#328E6F"/>
        <path d="M120.347 108.706C114.421 105.733 111.119 100.626 108.951 94.6225C108.856 94.3519 109.277 93.8912 109.456 93.5256C111.992 91.968 114.831 90.9707 117.784 90.6008C123.1 89.9939 126.164 93.1966 125.199 98.4613C124.497 102.286 122.64 105.613 120.347 108.698" fill="#FF948B"/>
        <path d="M151.727 117.023C145.845 117.206 140.028 116.68 134.365 115.082C135.304 111.908 136.558 108.867 138.522 106.198C140.097 104.07 141.998 102.377 144.905 102.779C147.676 103.163 149.015 105.24 149.961 107.565C150.514 108.929 150.795 110.406 151.197 111.832L151.318 112.629L151.406 114.332C151.251 114.546 151.182 114.81 151.211 115.072C151.24 115.334 151.365 115.576 151.563 115.751L151.727 117.023Z" fill="#FF948B"/>
        <path d="M86.9672 21.8336L70.8804 14.9528C72.4781 12.0609 74.1709 9.23474 76.9459 7.27508C80.5069 4.77432 83.9436 5.57866 85.991 9.40658C88.1152 13.3844 87.9214 17.5779 86.9818 21.8372" fill="#FF948B"/>
        <path d="M65.5243 197.154C67.2938 198.25 69.546 198.755 70.2443 201.855C71.4581 199.859 72.6719 198.806 74.5548 199.146C76.339 199.472 77.582 200.462 78.6788 201.895C80.9749 204.908 82.8248 208.074 83.11 211.953C80.6531 211.902 78.167 212.081 75.7467 211.752C68.4345 210.765 64.6907 205.318 65.5096 197.154" fill="#40C49E"/>
        <path d="M59.4515 11.7575C59.1188 12.4156 59.4515 13.6769 58.1061 13.4466C53.6018 12.6825 49.1085 13.0079 44.6078 13.4722C44.3665 13.4978 44.0887 13.1614 43.8254 12.9896C43.7487 9.58577 44.9222 6.5366 46.8124 3.81648C50.0883 -0.877931 54.9984 -0.417265 57.5394 4.74512C58.6081 6.94301 59.2566 9.3213 59.4515 11.7575Z" fill="#FF948B"/>
        <path d="M105.566 74.6749C104.063 69.6661 105.087 64.5074 104.929 59.4291C104.875 57.6486 107.514 59.2536 108.714 58.4712C109.865 58.643 111.035 58.7417 112.169 59.005C118.26 60.4272 119.481 64.2222 115.287 68.8216C112.64 71.7464 109.236 73.4319 105.569 74.6713" fill="#FF948B"/>
        <path d="M103.588 45.1083C101.467 44.0115 101.99 41.6423 101.295 39.9203C99.9865 36.6883 98.2974 33.705 96.685 30.6375C99.2263 29.5433 101.962 28.9713 104.728 28.9557C107.112 28.8972 109.533 29.3213 110.885 31.5589C112.296 33.8951 111.635 36.2789 110.319 38.5054C108.683 41.258 106.361 43.5393 103.58 45.1266" fill="#FF948B"/>
        <path d="M180.336 108.519C176.084 111.642 171.177 113.755 165.986 114.698C165.299 111.715 165.672 108.76 166.45 105.879C167.825 100.801 171.913 99.6239 175.879 103.148C177.623 104.699 179.236 106.406 180.332 108.519" fill="#FF948B"/>
        <path d="M202.042 98.3699C197.735 100.253 194.035 103.488 189.158 104.099C188.288 101.364 188.288 98.6587 189.421 95.9898C190.997 92.2788 194.046 91.3246 197.403 93.6097C199.23 94.8938 200.803 96.5053 202.042 98.3626" fill="#FF948B"/>
        <path d="M223.313 90.6665C219.292 91.4599 215.577 93.5402 211.391 93.7303C211.257 91.6889 211.691 89.6503 212.645 87.8404C214.411 84.2538 217.5 83.731 220.421 86.5059C221.661 87.6832 222.831 88.9482 223.313 90.6665Z" fill="#FF948B"/>
        <path d="M65.7327 189.563C65.8314 191.549 65.952 193.538 65.4877 195.501C64.8943 193.551 64.9806 191.458 65.7327 189.563Z" fill="#63D2D1"/>
        <path d="M151.555 115.751C151.358 115.576 151.233 115.334 151.204 115.072C151.175 114.81 151.244 114.546 151.398 114.333C151.576 114.519 151.687 114.759 151.715 115.015C151.744 115.271 151.688 115.53 151.555 115.751Z" fill="#63D2D1"/>
        <path d="M47.0867 148.531L47.8179 148.663C47.5144 148.926 47.2841 148.806 47.0867 148.531Z" fill="#63D2D1"/>
        <path d="M151.311 112.629L151.19 111.832C151.289 112.002 151.375 112.181 151.446 112.365C151.446 112.435 151.358 112.541 151.311 112.629Z" fill="#63D2D1"/>
        <path d="M104.633 193.26C104.293 191.604 103.233 191.399 100.389 191.454C98.886 190.218 97.036 189.677 95.2957 188.895C85.9617 184.793 77.9622 179.129 72.7194 170.069C71.6665 168.241 71.3009 166.048 69.6849 164.567C69.4838 163.105 69.2096 161.642 69.1182 160.18C69.0268 158.717 68.27 158.26 66.9026 158.041C62.2374 157.31 58.3657 155.405 57.0312 150.33C56.7533 149.274 55.9344 149.157 55.1447 148.996V148.776C56.1647 148.327 56.768 147.654 56.9946 146.305C57.3858 144.005 58.0915 141.45 60.1462 140.225C65.0782 137.304 65.4438 132.873 65.0782 127.981C65.0588 127.344 65.0722 126.707 65.1184 126.072C65.9123 121.909 66.3866 117.691 66.537 113.455C76.6826 113.777 88.1444 116.537 92.6816 126.072C96.919 134.964 103.752 186.398 104.652 193.26" fill="#1EF7B4"/>
        <path d="M96.685 120.869C93.9978 124.694 74.383 135.026 67.1695 137.563C59.9561 140.1 53.5762 139.647 51.6385 142.444C49.7008 145.241 46.6077 150.56 50.0773 153.357C53.5469 156.154 58.4278 159.324 66.8953 158.063C75.3628 156.801 99.8475 144.901 104.626 139.607" fill="#40C49E"/>
        <path d="M139.428 215.076C129.897 214.469 120.384 213.749 110.852 213.211C109.733 213.204 108.663 212.753 107.876 211.957C109.408 204.952 113.36 195.816 117.159 204.554C120.958 213.292 118.143 195.706 124.047 200.971C129.952 206.235 132.35 208.257 134.361 205.961C136.372 203.665 140.229 204.952 141.512 210.089C141.878 211.507 140.949 213.273 139.428 215.076Z" fill="#1EF7B4"/>
        <path d="M33.6798 38.7392C33.7054 33.8876 37.5955 30.279 42.7652 30.3083C47.7045 30.3339 51.1522 33.7816 51.0974 38.6405C51.0389 43.3934 46.9404 47.4736 42.1985 47.4809C37.4565 47.4882 33.6542 43.536 33.6798 38.7392ZM45.2915 34.6371C44.459 34.6465 43.6478 34.9019 42.9602 35.3714C42.2726 35.8408 41.7392 36.5032 41.4273 37.2751C41.1153 38.0471 41.0387 38.894 41.2072 39.7094C41.3756 40.5248 41.7815 41.2721 42.3737 41.8572C42.966 42.4424 43.7182 42.8393 44.5355 42.9978C45.3528 43.1564 46.1988 43.0696 46.967 42.7483C47.7351 42.4271 48.391 41.8858 48.8521 41.1925C49.3132 40.4993 49.5588 39.6851 49.5582 38.8525C49.5572 38.2949 49.4459 37.743 49.2305 37.2286C49.0151 36.7142 48.7 36.2476 48.3033 35.8557C47.9066 35.4638 47.4362 35.1543 46.9193 34.9452C46.4024 34.736 45.8491 34.6313 45.2915 34.6371Z" fill="#FEFEFE"/>
        <path d="M45.2915 34.6371C46.3929 34.645 47.4474 35.0833 48.23 35.8583C49.0126 36.6333 49.461 37.6836 49.4797 38.7848C49.4983 39.886 49.0855 40.9508 48.3296 41.7518C47.5737 42.5528 46.5345 43.0265 45.4341 43.0716C44.872 43.0947 44.3109 43.0051 43.7839 42.8081C43.2569 42.6111 42.7746 42.3107 42.3654 41.9246C41.9562 41.5384 41.6284 41.0743 41.4012 40.5596C41.1741 40.0449 41.0521 39.4899 41.0426 38.9274C41.0331 38.3649 41.1362 37.8061 41.3459 37.284C41.5555 36.7619 41.8674 36.287 42.2633 35.8872C42.6592 35.4875 43.1311 35.1709 43.6511 34.9562C44.1712 34.7415 44.7289 34.633 45.2915 34.6371ZM46.1799 37.9275C46.7613 37.8435 47.211 37.5327 47.2475 36.9294C47.2688 36.7827 47.256 36.633 47.2101 36.492C47.1642 36.351 47.0864 36.2225 46.9828 36.1164C46.8792 36.0103 46.7526 35.9296 46.6127 35.8803C46.4728 35.8311 46.3235 35.8148 46.1763 35.8326C46.0412 35.8216 45.9053 35.8406 45.7783 35.8881C45.6514 35.9357 45.5365 36.0107 45.4419 36.1078C45.3472 36.2049 45.2752 36.3216 45.2309 36.4498C45.1866 36.5779 45.1711 36.7142 45.1855 36.849C45.1855 37.5071 45.5986 37.7813 46.1799 37.9458" fill="#060606"/>
        <path d="M0.935957 43.2363C0.961549 38.3846 4.84796 34.7724 10.0213 34.8017C14.9607 34.8273 18.4084 38.275 18.3499 43.1339C18.2914 47.8868 14.1929 51.967 9.45097 51.9743C4.70903 51.9816 0.906708 48.0294 0.935957 43.2363ZM12.544 39.1341C11.7125 39.1457 10.9031 39.4029 10.2174 39.8734C9.53178 40.3438 9.0006 41.0066 8.69071 41.7782C8.38082 42.5499 8.30607 43.3959 8.47587 44.21C8.64566 45.024 9.05241 45.7696 9.64495 46.353C10.2375 46.9364 10.9893 47.3316 11.8059 47.4887C12.6224 47.6458 13.4672 47.558 14.234 47.2362C15.0007 46.9143 15.6552 46.3729 16.1149 45.6801C16.5747 44.9872 16.8193 44.1738 16.818 43.3423C16.8166 42.7847 16.7047 42.2328 16.4889 41.7186C16.2731 41.2044 15.9575 40.7381 15.5605 40.3465C15.1635 39.9549 14.6928 39.6459 14.1757 39.4372C13.6586 39.2284 13.1053 39.1242 12.5477 39.1305" fill="#FEFEFE"/>
        <path d="M12.544 39.1341C13.662 39.1152 14.7417 39.5412 15.5457 40.3184C16.3496 41.0956 16.8119 42.1603 16.8308 43.2783C16.8497 44.3963 16.4237 45.4761 15.6465 46.28C14.8693 47.0839 13.8046 47.5462 12.6866 47.5651C12.133 47.5744 11.583 47.4747 11.068 47.2715C10.553 47.0683 10.083 46.7656 9.68493 46.3808C8.88101 45.6036 8.41875 44.5389 8.39984 43.4209C8.38093 42.3029 8.80693 41.2232 9.58411 40.4192C10.3613 39.6153 11.426 39.1531 12.544 39.1341ZM13.4324 42.4246C14.0174 42.3405 14.4671 42.0261 14.5 41.4265C14.5212 41.2801 14.5084 41.1308 14.4627 40.9901C14.417 40.8494 14.3396 40.7211 14.2364 40.6151C14.1332 40.5091 14.0071 40.4282 13.8677 40.3788C13.7283 40.3293 13.5794 40.3125 13.4324 40.3297C13.2989 40.3182 13.1645 40.3358 13.0385 40.3814C12.9125 40.427 12.7979 40.4994 12.7026 40.5936C12.6073 40.6878 12.5337 40.8016 12.4867 40.9271C12.4398 41.0527 12.4206 41.1869 12.4307 41.3205C12.4307 41.9786 12.8438 42.2564 13.4251 42.4173" fill="#060606"/>
        <path d="M16.3098 54.7054C16.3098 58.6064 14.0101 61.7689 11.1913 61.7689C8.37242 61.7689 6.07275 58.6064 6.07275 54.7054C6.07275 50.8044 8.37242 47.6418 11.1913 47.6418C14.0101 47.6418 16.3281 50.8044 16.3281 54.7054" fill="#40C49E"/>
        <path d="M49.4631 69.0957L47.5034 76.8832H61.4477" fill="#40C49E"/>
        <path d="M45.2001 47.6419C45.2001 48.6543 44.8999 49.6439 44.3375 50.4856C43.7751 51.3274 42.9757 51.9834 42.0404 52.3708C41.1051 52.7582 40.0759 52.8596 39.083 52.6621C38.0901 52.4646 37.1781 51.9771 36.4623 51.2613C35.7464 50.5454 35.2589 49.6334 35.0614 48.6405C34.8639 47.6476 34.9653 46.6185 35.3527 45.6832C35.7401 44.7479 36.3962 43.9485 37.2379 43.3861C38.0796 42.8236 39.0693 42.5234 40.0816 42.5234C41.4391 42.5234 42.741 43.0627 43.7009 44.0226C44.6608 44.9825 45.2001 46.2844 45.2001 47.6419Z" fill="#40C49E"/>
    </g>
    <defs>
        <clipPath id="clip0_211_680">
            <rect width="265" height="214.583" fill="white" transform="translate(0 0.566162)"/>
        </clipPath>
    </defs>
</svg>
    