<svg width="190" height="199" viewBox="0 0 190 199" fill="none"
    xmlns="http://www.w3.org/2000/svg">
    <g clip-path="url(#a)">
        <path d="M109 112.25s12.401 35.438 21.177 42.226c8.776 6.788 24.769 1.798 27.763 2.196 2.995.397 11.964 34.906-13.78 41.353-1.597.397-30.564-13.984-35.16-14.184-4.595-.201-12.46 4.194-22.41 4.194-9.952 0-17.817-4.395-22.412-4.194-4.596.2-33.563 14.585-35.157 14.187-25.757-6.446-16.781-40.952-13.787-41.353 2.995-.401 18.981 4.596 27.771-2.195 8.79-6.792 21.173-42.226 21.173-42.226L109 112.25Z" fill="#C4BBBB"/>
        <path d="m65.642 112.25-1.76.859c-.352.96-.968 2.678-1.808 4.891l5.197 1.583s12.354 37.831 54.014 21.891c-6.479-12.647-12.274-29.206-12.274-29.206l-43.37-.018Zm57.87 38.816c-1.151 8.994-6.038 22.777-10.458 33.914 2.389.87 5.489 2.161 8.815 3.604 2.674-15.416 1.643-37.518 1.643-37.518Zm-73.279 37.993c3.519-1.538 6.844-2.945 9.434-3.91-8.555-15.25-10.071-33.284-10.071-33.284-2.717 13.952-.352 29.949.637 37.194Z" fill="#CEC4C4"/>
        <path d="M37.653 164.772a5.852 5.852 0 0 1-3.167-4.402c-.098-.598-1.01-.352-.904.25a6.722 6.722 0 0 0 3.603 4.965c.538.281 1.013-.532.478-.813m-.65-4.515c-.352-.499-1.155-.028-.813.475a6.14 6.14 0 0 1 .922 1.665.473.473 0 0 0 .85.094.471.471 0 0 0 .057-.344 6.777 6.777 0 0 0-1.017-1.89Zm1.607-1.298c-.534-.289-1.01.524-.474.813 1.108.605 1.52 1.777 1.54 2.984a.47.47 0 0 0 .806.333.47.47 0 0 0 .138-.333c-.028-1.531-.609-3.037-2.01-3.797Zm97.912 1.411a5.852 5.852 0 0 1-3.167 4.402c-.539.282-.06 1.094.475.813a6.727 6.727 0 0 0 3.606-4.965c.103-.591-.805-.848-.907-.25m-2.661 2.027c.218-.6.529-1.162.922-1.665.352-.503-.478-.974-.812-.475a6.746 6.746 0 0 0-1.017 1.89.47.47 0 0 0 .907.25Zm-1.499-3.438c-1.407.76-1.984 2.266-2.009 3.797a.472.472 0 0 0 .943 0c.018-1.207.433-2.379 1.541-2.984.535-.289.057-1.102-.475-.813Z" fill="#DCD0D0"/>
        <path d="M85.509 140.57c-13.048 0-23.622 12.864-23.622 28.727a33.39 33.39 0 0 0 3.266 14.568c4.686.352 12.16 4.173 21.447 4.173 7.857 0 14.409-2.734 19.086-3.786a33.38 33.38 0 0 0 3.448-14.955c0-15.863-10.577-28.727-23.625-28.727Z" fill="#D7E6F2"/>
        <path d="M85.509 140.57c-.44 0-.88 0-1.313.045a33.654 33.654 0 0 0 14.202 4.613c-3.709-2.941-8.132-4.658-12.89-4.658Z" fill="#C8DEF3"/>
        <path d="M67.957 150.056c-3.78 5.096-6.08 11.841-6.08 19.241a33.39 33.39 0 0 0 3.265 14.568c4.356.324 11.12 3.646 19.508 4.117-.95-4.807-2.502-9.571-3.923-14.181-2.745-8.663-7.168-16.598-12.77-23.745Zm41.167 19.241c0-6.788-1.943-13.019-5.184-17.946a45.478 45.478 0 0 0-2.797 3.948 85.406 85.406 0 0 0-7.481 14.051A92.823 92.823 0 0 0 88.327 188c7.087-.352 13.02-2.766 17.348-3.741a33.394 33.394 0 0 0 3.449-14.955" fill="#EDC0C0"/>
        <path d="M15.235 156.675c-2.995.401-11.964 34.907 13.786 41.353 0 0 8.797-19.578-13.787-41.353Z" fill="#DCD0D0"/>
        <path d="M24.834 163.379c-.507-1.76-2.787-1.76-4.708-1.443a60.23 60.23 0 0 1 3.195 4.223c1.09-.609 1.939-1.503 1.513-2.773m-3.016-5.831c-.02-.049-.053-.084-.077-.13-3.093-.426-5.497-.88-6.489-.75a66.53 66.53 0 0 1 4.61 4.927c1.502-.877 2.762-2.319 1.956-4.047Z" fill="#70828E"/>
        <path d="M18.746 157.449c-.475-.147-.957-.246-1.435-.376a.471.471 0 0 0-.25.908c.475.13.96.229 1.436.376.58.183.826-.725.25-.908Zm1.274.222a.47.47 0 0 0-.793.22.47.47 0 0 0 .044.326.55.55 0 0 0 .351.295.475.475 0 0 0 .395-.841m2.614 4.43a5.765 5.765 0 0 0-1.017-.274c-.595-.127-.844.781-.253.908.275.036.546.098.81.186.552.236 1.034-.577.474-.813" fill="#95ADBA"/>
        <path d="M23.3 162.341a.47.47 0 0 0 0 .939.47.47 0 0 0 0-.939Z" fill="#95ADBA"/>
        <path d="M157.94 156.675c2.998.401 11.964 34.907-13.78 41.353 0 0-8.797-19.578 13.78-41.353Z" fill="#DCD0D0"/>
        <path d="M148.341 163.379c.513-1.76 2.787-1.76 4.715-1.443a52.607 52.607 0 0 0-3.195 4.223c-1.094-.609-1.943-1.503-1.52-2.773m3.036-5.831c.025-.049.057-.084.078-.13 3.093-.426 5.5-.88 6.485-.75a67.024 67.024 0 0 0-4.606 4.927c-1.503-.877-2.762-2.319-1.957-4.047Z" fill="#70828E"/>
        <path d="M149.372 164.237a.437.437 0 0 0 .204-.369c.011-.265.056-.528.134-.782.179-.58-.732-.826-.905-.249-.103.334-.16.681-.169 1.031a.42.42 0 0 0 .116.319.418.418 0 0 0 .314.131.472.472 0 0 0 .267.852.47.47 0 0 0 .34-.772.473.473 0 0 0-.301-.161Zm3.054-5.475a4.105 4.105 0 0 1-.06-.767.471.471 0 1 0-.943 0c-.004.346.028.691.095 1.031.12.594 1.028.352.905-.25m.154.626a.473.473 0 0 0 0 .94.47.47 0 0 0 .307-.789.475.475 0 0 0-.307-.151Z" fill="#95ADBA"/>
        <path d="M120.116 34.513S138.52-6.52 165.439.897c41.852 11.535 23.731 100.357-6.26 106.335-25.315 5.05-36.994-19.965-36.994-19.965l-2.069-52.754Z" fill="#C4BBBB"/>
        <path d="M140.402 61.629c-5.088-11.447-11.098-22.669-16.341-34.485a82.86 82.86 0 0 0-3.934 7.39l2.069 52.782s5.831 12.456 18.164 18.009a39.397 39.397 0 0 0 3.913-8.74c3.329-11.93 1.108-23.858-3.871-34.956Z" fill="#CEC4C4"/>
        <path d="M130.346 48.911s15.978-31.222 35.093-27.925c19.114 3.297 19.881 53.166-2.967 70.528-15.285 11.612-27.351-5.3-27.351-5.3l-4.775-37.303Z" fill="#D7E6F2"/>
        <path d="M140.402 61.629c-2.463-5.54-5.144-11.028-7.85-16.539-1.408 2.333-2.196 3.853-2.196 3.853l4.775 37.3s3.769 5.278 9.758 7.91c2.407-11.109.165-22.169-4.487-32.51" fill="#C8DEF3"/>
        <path d="M50.88 34.513S32.477-6.52 5.558.897C-36.295 12.432-18.17 101.254 11.82 107.233c25.314 5.049 36.993-19.966 36.993-19.966l2.066-52.754Z" fill="#C4BBBB"/>
        <path d="M40.654 48.912S24.672 17.703 5.559 21c-19.114 3.297-19.881 53.166 2.97 70.528 15.282 11.612 27.351-5.3 27.351-5.3l4.776-37.316Z" fill="#D7E6F2"/>
        <path d="M-3.968 20.297C1.02 12.499 8.208 4.547 16.931.507a24.012 24.012 0 0 0-11.373.39c-25.733 7.09-28.78 43.409-20.335 71.717-2.193-17.72.154-35.466 10.81-52.317Zm89.477-6.169c-8.262-.493-31.068 3.966-40.484 25.614-9.416 21.647-19.477 30.075-15.38 49.741 3.307 15.863 19.5 27.43 55.853 27.43s52.55-11.567 55.854-27.43c4.096-19.666-5.946-28.094-15.366-49.742-9.42-21.647-32.226-26.106-40.477-25.613Z" fill="#DCD0D0"/>
        <path d="M50.437 56.262c11.65-18.966 28.654-31.669 48.25-40.192-5.405-1.653-10.23-2.11-13.189-1.942-8.262-.493-31.067 3.966-40.484 25.614-9.416 21.647-19.466 30.075-15.37 49.741 1.492 7.147 5.613 13.421 13.002 18.158a59.03 59.03 0 0 1-2.111-9.522c-1.978-14.832 2.308-29.333 9.888-41.857" fill="#EDE2E2"/>
        <path d="M89.492 7.703c-1.932 2.167-2.885 4.743-3.698 7.488-.292.989 1.246 1.407 1.538.422.728-2.463 1.544-4.831 3.286-6.784.68-.764-.443-1.893-1.126-1.126Z" fill="#EDE2E2"/>
        <path d="M84.703 5.838c-.063 3.307-.746 6.474-.123 9.775.19 1.01 1.724.58 1.534-.422-.591-3.139.123-6.207.183-9.353.018-1.028-1.576-1.028-1.594 0Z" fill="#EDE2E2"/>
        <path d="M80.146 3.104c.042 4.68.774 9.219 3.449 13.157.577.84 1.956.049 1.375-.803-2.53-3.723-3.195-7.935-3.23-12.354 0-1.028-1.6-1.028-1.594 0Z" fill="#EDE2E2"/>
        <path d="M122.185 72.136c0 3.24-1.808 5.865-4.046 5.865-2.238 0-4.05-2.625-4.05-5.865 0-3.241 1.815-5.866 4.05-5.866 2.234 0 4.046 2.625 4.046 5.866Zm-73.374 0c0 3.24 1.812 5.865 4.047 5.865 2.234 0 4.05-2.625 4.05-5.865 0-3.241-1.812-5.866-4.05-5.866-2.238 0-4.047 2.625-4.047 5.866Z" fill="#5A6A72"/>
        <path d="M53.945 71.763h.18c1.914 0 1.914-2.967 0-2.967h-.18c-1.91 0-1.91 2.967 0 2.967Zm62.966-1.147c.063.06.119.116.179.179a1.495 1.495 0 0 0 2.111 0 1.488 1.488 0 0 0 .324-1.627 1.488 1.488 0 0 0-.324-.484l-.179-.18a1.494 1.494 0 0 0-2.111 2.112Z" fill="#95ADBA"/>
        <g opacity=".7">
            <mask id="b" style="mask-type:luminance" maskUnits="userSpaceOnUse" x="28" y="68" width="115" height="37">
                <path d="M142.292 68.03H28.705v36.398h113.587V68.029Z" fill="#fff"/>
            </mask>
            <g mask="url(#b)" fill="#EF9A9A">
                <path d="M141.352 89.484c1.799-8.625.873-15.09-1.523-21.465a19.323 19.323 0 0 0-7.214 36.402 26.99 26.99 0 0 0 8.737-14.937Zm-111.708-.001c-1.794-8.624-.869-15.088 1.527-21.464a19.322 19.322 0 0 1 7.21 36.402 27.014 27.014 0 0 1-8.737-14.948"/>
            </g>
        </g>
        <path d="M72.447 77.685s-19.832 43.334 14.54 61.069c30.842 15.915 45.428-9.853 39.238-19.677-5.173-8.22-16.89-3.414-16.521 4.785 0 0-10.384-11.186-2.224-32.528" fill="#DCD0D0"/>
        <path d="M86.987 138.754c-34.372-17.735-14.54-61.07-14.54-61.07s-2.555 19.002.215 33.05c3.166 16.073 14.325 28.02 14.325 28.02Z" fill="#EDE2E2"/>
        <path d="M115.521 127.107c-2.33 0-4.87-1.489-6.144-2.96a.434.434 0 0 1 .522-.671.423.423 0 0 1 .132.105c1.214 1.407 3.688 2.759 5.757 2.653a3.792 3.792 0 0 0 3.012-1.777 1.718 1.718 0 0 0 .102-1.921 2.781 2.781 0 0 0-2.392-1.316 1.49 1.49 0 0 0-1.348.988.423.423 0 0 1-.235.234.45.45 0 0 1-.332-.001.429.429 0 0 1-.233-.235.431.431 0 0 1 .001-.332 2.333 2.333 0 0 1 2.09-1.516 3.579 3.579 0 0 1 3.202 1.759 2.568 2.568 0 0 1-.14 2.836 4.642 4.642 0 0 1-3.674 2.157h-.32M74.118 88.14c9.273-1 18.587 2.21 25.05 8.983.768.802 2.13-.268 1.359-1.073a31.95 31.95 0 0 0-26.676-9.617c-1.112.12-.838 1.826.267 1.706Zm24.312 18.297c-7.439-4.251-15.993-5.605-24.442-4.43-1.105.151-.834 1.861.271 1.707 7.95-1.102 16.123.102 23.136 4.11.961.545 2.002-.834 1.035-1.387Zm2.449 8.459c-7.54-1.78-18.125.257-23.309 6.387-.724.855.669 1.883 1.387 1.035 4.796-5.673 14.828-7.334 21.746-5.701 1.084.257 1.249-1.467.176-1.721Zm1.696 8.111c-4.462 1.862-8.53 6.739-8.142 11.767.087 1.112 1.794.834 1.71-.271-.328-4.222 3.445-8.375 7.129-9.909 1.031-.429.334-2.016-.704-1.587" fill="#C4BBBB"/>
        <path d="M105.468 144.271c-5.757 0-12.126-1.685-18.707-5.081-34.392-17.745-14.976-61.273-14.76-61.71a.494.494 0 0 1 .654-.246.5.5 0 0 1 .242.659c-.197.425-19.237 43.109 14.318 60.425 14.051 7.248 27.095 6.52 34.861-1.946 4.884-5.324 6.489-12.643 3.73-17.031-2.561-4.075-6.612-4.547-9.546-3.628-3.73 1.164-6.222 4.507-6.06 8.128a.491.491 0 0 1-.307.473.497.497 0 0 1-.551-.121c-.102-.113-10.497-11.661-2.323-33.042a.5.5 0 0 1 .452-.35.495.495 0 0 1 .474.702c-4.156 10.863-3.357 19.002-1.953 23.893a24.025 24.025 0 0 0 3.272 7.08c.43-3.519 3.027-6.57 6.686-7.717 3.283-1.031 7.815-.507 10.68 4.043 2.987 4.754 1.34 12.591-3.839 18.228-4.402 4.821-10.42 7.241-17.323 7.241Zm-41.913.781c4.905 2.668 18.738 24.442 18.678 41.385 0 0-10.909 12.098-25.41 7.914 0 0-9.722-21.528-7.037-44.2" fill="#C4BBBB"/>
        <path d="M78.151 189.713c-1.13-2.111-3.87-4.68-6.292-2.906-2.111 1.453-1.133 4.36-.161 6.299-1.292-1.76-4.037-4.846-6.137-2.583-1.292 1.172-.873 3.026-.18 4.574 10.029-1.094 16.852-8.656 16.852-8.656 0-.732-.032-1.478-.078-2.227a6.565 6.565 0 0 0-1.097-.63c-4.037-1.777-3.227 3.55-2.907 6.133" fill="#70828E"/>
        <path d="M73.992 170.05c-2.815.549-5.279 1.858-7.538 3.6-.475.352 0 1.182.476.813 2.199-1.693 4.574-2.97 7.312-3.519.594-.116.351-1.024-.25-.908m.211 4.582a7.939 7.939 0 0 1-5.771 1.083c-.595-.13-.844.778-.25.908a8.893 8.893 0 0 0 6.496-1.179.47.47 0 0 0-.475-.812Zm-1.503-1.492-2.42.967c-.557.222-.314 1.133.25.908l2.42-.968c.556-.221.313-1.133-.25-.907Z" fill="#DCD0D0"/>
        <path d="M65.832 190.628c-.616.704-1.056 1.527-.8 2.495a.47.47 0 0 0 .851.094.471.471 0 0 0 .058-.344c-.152-.616.172-1.126.556-1.58.383-.454-.271-1.129-.665-.665Zm5.813-3.3a5.55 5.55 0 0 0-.606 1.055c-.232.553.581 1.031.817.475a5.27 5.27 0 0 1 .602-1.055c.351-.493-.458-.965-.813-.475Zm-.261 2.336c-.443-.317-.858.303-.594.686.168.465.953.43.9-.126a.645.645 0 0 0-.306-.56Zm6.989-5.12a1.08 1.08 0 0 1-.088.292c-.233.553.577 1.031.813.475.11-.243.184-.502.218-.767.07-.602-.87-.595-.943 0Zm-.528 1.661v.151a.472.472 0 1 0 .943 0v-.151a.47.47 0 0 0-.805-.333.47.47 0 0 0-.138.333Z" fill="#95ADBA"/>
        <path d="M109.623 145.052c-4.901 2.668-18.738 24.442-18.674 41.385 0 0 10.908 12.098 25.406 7.914 0 0 9.726-21.528 7.037-44.2" fill="#C4BBBB"/>
        <path d="M95.027 189.713c1.13-2.111 3.87-4.68 6.295-2.906 2.112 1.453 1.13 4.36.162 6.299 1.292-1.76 4.036-4.846 6.134-2.583 1.291 1.172.876 3.026.179 4.574-10.025-1.094-16.848-8.656-16.848-8.656 0-.732.028-1.478.077-2.227a6.37 6.37 0 0 1 1.095-.63c4.036-1.777 3.23 3.55 2.906 6.133" fill="#70828E"/>
        <path d="M99.186 170.05c-.59-.116-.844.792-.25.908 2.742.535 5.117 1.812 7.316 3.519.479.369.947-.447.475-.813-2.262-1.742-4.722-3.051-7.54-3.6m5.563 5.637a7.939 7.939 0 0 1-5.771-1.083.47.47 0 0 0-.674.526.47.47 0 0 0 .199.286 8.894 8.894 0 0 0 6.496 1.179c.594-.13.351-1.038-.25-.908Zm-2.101-.707c.566.225.809-.686.25-.908l-2.421-.96c-.563-.226-.806.686-.25.907l2.421.968" fill="#DCD0D0"/>
        <path d="M91.343 184.08a4.75 4.75 0 0 0-.426 1.171.475.475 0 0 0 .336.555.474.474 0 0 0 .572-.305 3.92 3.92 0 0 1 .33-.946.472.472 0 0 0-.812-.475Zm7.034 2.927a3.9 3.9 0 0 0-1.524 1.299c-.327.517.49.989.813.475.306-.418.716-.75 1.19-.961.538-.281.063-1.091-.479-.813Z" fill="#95ADBA"/>
        <path d="M96.259 189.312v.078a.47.47 0 0 0 .471.471.473.473 0 0 0 .472-.471v-.078a.47.47 0 0 0-.805-.333.47.47 0 0 0-.138.333Zm8.308 1.408c-.273.18-.531.38-.774.598-.444.419.225 1.084.668.668.181-.168.376-.32.584-.453.496-.352.028-1.158-.478-.813Z" fill="#95ADBA"/>
        <path d="M48.21 70.26c.035-6.334 5.123-11.07 11.886-11.035 6.464.035 10.975 4.55 10.908 10.908-.074 6.229-5.436 11.56-11.644 11.567-6.14 0-11.179-5.162-11.144-11.436m15.191-5.367a5.517 5.517 0 1 0 2.106.4 5.528 5.528 0 0 0-2.13-.403" fill="#FEFEFE"/>
        <path d="M63.393 64.894a5.518 5.518 0 1 1 .187 11.034 5.518 5.518 0 0 1-.187-11.034Zm1.161 4.282c.764-.112 1.355-.52 1.408-1.309a1.263 1.263 0 0 0-1.408-1.439 1.206 1.206 0 0 0-1.298 1.33c0 .859.538 1.221 1.298 1.408" fill="#060606"/>
        <path d="M106.045 69.219c.035-6.334 5.123-11.07 11.886-11.035 6.464.035 10.975 4.546 10.908 10.908-.073 6.232-5.436 11.56-11.643 11.57-6.137 0-11.18-5.162-11.144-11.436m15.19-5.367a5.517 5.517 0 1 0 5.588 5.514 5.538 5.538 0 0 0-1.645-3.92 5.519 5.519 0 0 0-3.943-1.594Z" fill="#FEFEFE"/>
        <path d="M121.235 63.852a5.517 5.517 0 0 1 4.061 9.353 5.518 5.518 0 1 1-4.061-9.353Zm1.162 4.283c.763-.113 1.354-.521 1.407-1.31a1.26 1.26 0 0 0-.833-1.378 1.265 1.265 0 0 0-.574-.06 1.202 1.202 0 0 0-1.299 1.326c0 .862.542 1.225 1.299 1.408" fill="#060606"/>
    </g>
    <defs>
        <clipPath id="a">
            <path fill="#fff" d="M-19 0h209v198.035H-19z"/>
        </clipPath>
    </defs>
</svg>