<svg width="223" height="291" viewBox="0 0 223 291" fill="none" xmlns="http://www.w3.org/2000/svg">
    <g clip-path="url(#clip0_200_2505)">
        <path
            d="M187.613 163.885C187.613 163.885 206.529 214.092 219.297 223.491C232.064 232.891 254.742 225.221 259.034 225.687C263.325 226.154 277.308 275.149 240.749 285.231C238.481 285.853 196.611 266.289 190.039 266.159C183.467 266.028 172.381 272.573 158.165 272.91C143.949 273.247 132.564 267.235 126.006 267.678C119.448 268.12 78.5532 289.652 76.2625 289.138C39.2467 280.801 50.9012 231.203 55.1655 230.528C59.4299 229.853 82.4367 236.45 94.7639 226.45C107.091 216.45 123.58 165.409 123.58 165.409L187.613 163.885Z"
            fill="#C4BBBB" />
        <path
            d="M125.672 165.355L123.187 166.641C122.717 168.025 121.896 170.499 120.769 173.69L128.248 175.776C128.248 175.776 147.179 229.402 206.153 205.218C196.47 187.37 187.629 163.91 187.629 163.91L125.672 165.355Z"
            fill="#CEC4C4" />
        <path
            d="M209.66 218.846C208.321 231.734 201.805 251.59 195.869 267.65C199.312 268.811 203.784 270.551 208.584 272.499C211.882 250.385 209.66 218.846 209.66 218.846Z"
            fill="#CEC4C4" />
        <path
            d="M106.261 275.605C111.236 273.289 115.939 271.166 119.606 269.7C106.868 248.204 104.091 222.492 104.091 222.492C100.683 242.516 104.603 265.288 106.261 275.605Z"
            fill="#CEC4C4" />
        <path
            d="M87.4667 241.335C86.2473 240.758 85.1855 239.894 84.3718 238.818C83.558 237.742 83.0165 236.485 82.7933 235.154C82.6322 234.303 81.3386 234.685 81.5098 235.541C81.7787 237.042 82.4011 238.457 83.3255 239.669C84.2499 240.881 85.4497 241.856 86.8257 242.512C87.6043 242.896 88.2554 241.719 87.4818 241.335"
            fill="#DCD0D0" />
        <path
            d="M86.399 234.908C85.8794 234.206 84.7492 234.906 85.2539 235.614C85.8312 236.32 86.2946 237.111 86.6274 237.96C86.6861 238.122 86.8045 238.256 86.9585 238.333C87.1124 238.41 87.2901 238.426 87.4551 238.376C87.6201 238.327 87.7598 238.216 87.8455 238.066C87.9312 237.917 87.9564 237.74 87.916 237.573C87.5551 236.609 87.0431 235.71 86.399 234.908Z"
            fill="#DCD0D0" />
        <path
            d="M88.6526 232.998C87.8787 232.604 87.2275 233.781 88.0015 234.175C89.6055 235.003 90.2334 236.663 90.3045 238.386C90.3087 238.565 90.3838 238.735 90.5131 238.858C90.6424 238.981 90.8155 239.048 90.9941 239.044C91.1728 239.04 91.3425 238.965 91.4658 238.835C91.5891 238.706 91.656 238.533 91.6518 238.354C91.5597 236.168 90.6792 234.036 88.6526 232.998Z"
            fill="#DCD0D0" />
        <path
            d="M222.596 229.821C220.611 230.954 219.838 233.126 219.854 235.313C219.859 235.492 219.934 235.662 220.063 235.785C220.192 235.908 220.365 235.975 220.544 235.971C220.723 235.967 220.892 235.892 221.016 235.762C221.139 235.633 221.206 235.46 221.202 235.281C221.186 233.556 221.739 231.868 223.302 230.966C224.057 230.536 223.346 229.391 222.596 229.821Z"
            fill="#DCD0D0" />
        <path
            d="M155.013 205.138C136.373 205.58 121.703 224.317 122.241 246.979C122.376 254.18 124.139 261.257 127.399 267.68C134.107 268.024 144.914 273.23 158.18 272.915C169.405 272.649 178.673 268.521 185.318 266.859C188.439 260.139 189.953 252.784 189.738 245.378C189.2 222.716 173.653 204.696 155.013 205.138Z"
            fill="#D7E6F2" />
        <path
            d="M155.014 205.138C154.385 205.153 153.757 205.168 153.14 205.248C159.412 208.789 166.399 210.877 173.585 211.357C168.187 207.28 161.81 204.977 155.014 205.138Z"
            fill="#C8DEF3" />
        <path
            d="M130.26 219.286C125.034 226.693 121.975 236.408 122.226 246.979C122.361 254.18 124.125 261.258 127.385 267.68C133.619 267.995 143.393 272.511 155.394 272.901C153.873 266.066 151.495 259.312 149.308 252.775C145.093 240.492 138.506 229.306 130.26 219.286Z"
            fill="#EDC0C0" />
        <path
            d="M189.723 245.378C189.493 235.681 186.507 226.844 181.71 219.916C180.321 221.758 179.032 223.672 177.847 225.651C173.818 232.094 170.399 238.899 167.636 245.977C164.376 254.65 162.034 263.64 160.647 272.801C170.76 272.058 179.153 268.409 185.303 266.87C188.425 260.149 189.938 252.795 189.723 245.388"
            fill="#EDC0C0" />
        <path
            d="M55.1655 230.528C50.9011 231.203 39.2567 280.801 76.2624 289.138C76.2624 289.138 88.1663 260.87 55.1655 230.528Z"
            fill="#DCD0D0" />
        <path
            d="M69.1066 239.779C68.3231 237.283 65.0656 237.36 62.3316 237.878C64.0554 239.869 65.6246 241.843 67.0392 243.802C68.5769 242.895 69.7581 241.589 69.1068 239.789"
            fill="#70828E" />
        <path
            d="M64.6013 231.562C64.5695 231.492 64.523 231.443 64.4863 231.378C60.0532 230.875 56.6044 230.308 55.1912 230.527C57.5568 232.706 59.8105 235.002 61.9435 237.409C64.0603 236.106 65.811 234.003 64.6013 231.562Z"
            fill="#70828E" />
        <path
            d="M60.2096 231.515C59.5259 231.32 58.8338 231.195 58.1457 231.026C57.9765 230.993 57.8013 231.027 57.6561 231.119C57.5109 231.212 57.4067 231.357 57.365 231.524C57.3232 231.691 57.3471 231.868 57.4316 232.018C57.5162 232.168 57.655 232.28 57.8195 232.331C58.5026 232.501 59.1997 232.625 59.8834 232.82C60.7191 233.062 61.0402 231.757 60.2096 231.515Z"
            fill="#95ADBA" />
        <path
            d="M62.0366 231.789C61.9217 231.675 61.7698 231.607 61.6087 231.597C61.4477 231.587 61.2884 231.635 61.1602 231.733C61.032 231.831 60.9436 231.972 60.9111 232.13C60.8787 232.288 60.9046 232.453 60.9838 232.593C61.0343 232.695 61.1064 232.784 61.195 232.855C61.2836 232.926 61.3866 232.977 61.4968 233.004C61.6489 233.035 61.8071 233.013 61.945 232.942C62.083 232.871 62.1923 232.754 62.2549 232.612C62.3174 232.47 62.3294 232.311 62.2887 232.161C62.2481 232.011 62.1573 231.88 62.0316 231.789"
            fill="#95ADBA" />
        <path
            d="M65.9156 238.029C65.4403 237.865 64.951 237.745 64.4537 237.671C63.6 237.511 63.2739 238.816 64.1226 238.977C64.5168 239.019 64.906 239.099 65.2849 239.216C66.082 239.534 66.7431 238.356 65.9359 238.038"
            fill="#95ADBA" />
        <path
            d="M66.8794 238.348C66.7117 238.367 66.5571 238.447 66.446 238.574C66.335 238.701 66.2756 238.865 66.2796 239.034C66.2836 239.203 66.3507 239.364 66.4677 239.485C66.5846 239.607 66.7429 239.68 66.9113 239.691C67.079 239.672 67.2336 239.592 67.3447 239.465C67.4557 239.338 67.5151 239.174 67.5111 239.005C67.5071 238.836 67.44 238.675 67.3231 238.554C67.2061 238.432 67.0478 238.359 66.8794 238.348Z"
            fill="#95ADBA" />
        <path
            d="M200.86 52.4529C200.86 52.4529 225.76 -6.79009 264.468 2.89453C324.65 17.9546 301.771 145.459 259.128 155.016C223.136 163.088 205.604 127.747 205.604 127.747L200.86 52.4529Z"
            fill="#C4BBBB" />
        <path
            d="M230.759 90.5033C223.102 74.323 214.136 58.4957 206.245 41.7928C204.276 45.2634 202.484 48.8312 200.875 52.4828L205.62 127.817C205.62 127.817 214.372 145.415 232.179 152.929C234.45 148.954 236.228 144.716 237.473 140.31C241.824 123.156 238.248 106.19 230.759 90.5033Z"
            fill="#CEC4C4" />
        <path
            d="M215.96 72.6766C215.96 72.6766 237.73 27.5309 265.148 31.5934C292.566 35.6559 295.352 106.872 263.3 132.449C241.857 149.556 224.046 125.806 224.046 125.806L215.96 72.6766Z"
            fill="#D7E6F2" />
        <path
            d="M230.759 90.5032C227.053 82.6742 223.036 74.923 218.983 67.1425C217.052 70.5231 215.977 72.7214 215.977 72.7214L224.063 125.845C224.063 125.845 229.626 133.258 238.271 136.815C241.333 120.864 237.756 105.14 230.76 90.5233"
            fill="#C8DEF3" />
        <path
            d="M101.949 54.7992C101.949 54.7992 74.2679 -3.19653 36.063 8.31251C-23.3368 26.2092 5.56702 152.485 48.6144 160.01C84.9495 166.366 100.786 130.233 100.786 130.233L101.949 54.7992Z"
            fill="#C4BBBB" />
        <path
            d="M87.8283 75.716C87.8283 75.716 63.9383 31.6735 36.7436 37.0315C9.54888 42.3895 10.1429 113.658 43.3763 137.686C65.6019 153.757 82.2713 129.189 82.2713 129.189L87.8283 75.716Z"
            fill="#D7E6F2" />
        <path
            d="M23.113 36.349C29.9719 25.0403 39.9725 13.4357 52.2974 7.36916C46.8887 6.37835 41.3211 6.7019 36.0635 8.31255C-0.458319 19.3139 -3.58096 71.3004 9.44306 111.456C5.71075 86.2146 8.46239 60.7841 23.113 36.349Z"
            fill="#DCD0D0" />
        <path
            d="M150.729 24.5045C138.909 24.0807 106.48 31.2227 93.7615 62.4676C81.043 93.7126 66.9565 106.093 73.4743 134.05C78.7372 156.599 102.263 172.574 154.197 171.342C206.13 170.11 228.877 153.038 233.06 130.264C238.245 102.03 223.613 90.3307 209.422 59.7241C195.231 29.1174 162.5 23.5211 150.729 24.5045Z"
            fill="#DCD0D0" />
        <path
            d="M102.053 85.8858C118.054 58.3957 141.914 39.6722 169.621 26.8328C161.843 24.6533 154.936 24.1633 150.714 24.5048C138.894 24.081 106.465 31.223 93.7465 62.468C81.0279 93.7129 66.9565 106.093 73.4744 134.05C75.848 144.209 81.9471 153.033 92.6643 159.548C91.1797 155.138 90.063 150.612 89.3254 146.017C85.9977 124.895 91.6291 104.034 102.033 85.8863"
            fill="#EDE2E2" />
        <path
            d="M156.202 15.1902C153.516 18.3523 152.241 22.0644 151.172 26.0129C150.789 27.4354 153 27.9815 153.383 26.5641C154.34 23.0205 155.426 19.6097 157.849 16.7607C158.793 15.6468 157.151 14.0712 156.202 15.1902Z"
            fill="#EDE2E2" />
        <path
            d="M149.296 12.6883C149.318 17.4157 148.45 21.9631 149.452 26.6573C149.757 28.0936 151.935 27.4283 151.629 26.0021C150.678 21.5381 151.595 17.1304 151.574 12.6342C151.564 11.1658 149.287 11.2198 149.296 12.6883Z"
            fill="#EDE2E2" />
        <path
            d="M142.694 8.93672C142.913 15.6211 144.112 22.0811 148.066 27.6157C148.919 28.7975 150.863 27.6197 150.005 26.4229C146.264 21.1901 145.171 15.1954 144.971 8.8827C144.937 7.41483 142.649 7.46909 142.694 8.93672Z"
            fill="#EDE2E2" />
        <path
            d="M205.09 106.131C205.2 110.761 202.705 114.572 199.508 114.648C196.311 114.724 193.633 111.035 193.523 106.405C193.413 101.776 195.918 97.964 199.11 97.8883C202.302 97.8125 204.98 101.501 205.09 106.131Z"
            fill="#5A6A72" />
        <path
            d="M100.268 108.617C100.378 113.247 103.056 116.936 106.248 116.86C109.44 116.785 111.945 112.973 111.835 108.343C111.725 103.713 109.047 100.025 105.85 100.1C102.653 100.176 100.158 103.988 100.268 108.617Z"
            fill="#5A6A72" />
        <path
            d="M107.59 107.911L107.847 107.905C110.581 107.84 110.481 103.602 107.746 103.667L107.49 103.673C104.76 103.738 104.86 107.976 107.59 107.911Z"
            fill="#95ADBA" />
        <path
            d="M197.503 104.138C197.596 104.222 197.678 104.3 197.766 104.389C197.968 104.582 198.207 104.734 198.468 104.835C198.73 104.936 199.008 104.984 199.289 104.978C199.569 104.971 199.845 104.909 200.101 104.796C200.357 104.683 200.589 104.52 200.782 104.317C200.975 104.114 201.127 103.875 201.228 103.614C201.329 103.353 201.377 103.074 201.371 102.794C201.364 102.514 201.302 102.238 201.189 101.982C201.076 101.725 200.913 101.494 200.71 101.301L200.448 101.05C200.038 100.66 199.491 100.448 198.925 100.461C198.359 100.475 197.822 100.712 197.432 101.122C197.041 101.531 196.829 102.079 196.843 102.645C196.856 103.211 197.094 103.748 197.503 104.138Z"
            fill="#95ADBA" />
        <g opacity="0.7">
            <mask id="mask0_200_2505" style="mask-type:luminance" maskUnits="userSpaceOnUse" x="71"
                y="99" width="164" height="57">
                <path
                    d="M233.676 99.5832L71.4053 103.432L72.6387 155.431L234.909 151.582L233.676 99.5832Z"
                    fill="white" />
            </mask>
            <g mask="url(#mask0_200_2505)">
                <path
                    d="M233.061 130.264C235.337 117.882 233.796 108.679 230.157 99.6515C224.214 100.312 218.646 102.885 214.291 106.982C209.935 111.078 207.028 116.479 206.005 122.37C204.982 128.261 205.899 134.325 208.618 139.651C211.338 144.976 215.713 149.274 221.085 151.9C227.343 146.198 231.551 138.595 233.061 130.264Z"
                    fill="#EF9A9A" />
                <path
                    d="M73.4749 134.05C70.6189 121.789 71.722 112.523 74.9292 103.333C80.8964 103.713 86.5791 106.019 91.1231 109.905C95.6672 113.791 98.8269 119.047 100.127 124.883C101.428 130.719 100.799 136.82 98.3346 142.268C95.8705 147.715 91.7046 152.216 86.4631 155.093C79.9404 149.689 75.3764 142.289 73.4746 134.035"
                    fill="#EF9A9A" />
            </g>
        </g>
        <path
            d="M134.223 115.744C134.223 115.744 107.359 178.323 157.063 202.494C201.664 224.186 221.628 186.879 212.452 173.054C204.784 161.486 188.207 168.75 189.013 180.45C189.013 180.45 173.799 164.822 184.734 134.057"
            fill="#DCD0D0" />
        <path
            d="M157.063 202.494C107.359 178.323 134.223 115.744 134.223 115.744C134.223 115.744 131.217 142.976 135.649 162.95C140.718 185.806 157.063 202.494 157.063 202.494Z"
            fill="#EDE2E2" />
        <path
            d="M197.432 184.888C194.104 184.967 190.424 182.927 188.555 180.869C188.445 180.746 188.389 180.585 188.397 180.421C188.405 180.257 188.478 180.103 188.599 179.992C188.659 179.938 188.729 179.895 188.806 179.868C188.882 179.841 188.963 179.829 189.044 179.833C189.125 179.837 189.205 179.857 189.278 179.892C189.351 179.927 189.417 179.977 189.471 180.037C191.253 182.007 194.832 183.853 197.785 183.632C198.652 183.566 199.491 183.291 200.229 182.831C200.968 182.371 201.585 181.74 202.027 180.992C202.314 180.594 202.474 180.12 202.489 179.63C202.503 179.14 202.371 178.657 202.108 178.243C201.733 177.672 201.218 177.206 200.612 176.891C200.005 176.576 199.328 176.422 198.645 176.444C198.22 176.471 197.813 176.624 197.476 176.884C197.139 177.144 196.887 177.499 196.753 177.903C196.724 177.978 196.68 178.047 196.623 178.106C196.567 178.165 196.5 178.212 196.425 178.244C196.351 178.277 196.271 178.294 196.19 178.296C196.108 178.298 196.028 178.283 195.952 178.254C195.876 178.224 195.807 178.18 195.749 178.124C195.69 178.067 195.643 178 195.61 177.926C195.578 177.851 195.56 177.771 195.559 177.69C195.557 177.609 195.571 177.528 195.601 177.452C195.815 176.832 196.208 176.288 196.73 175.89C197.252 175.492 197.88 175.257 198.536 175.215C199.453 175.163 200.367 175.36 201.182 175.783C201.997 176.206 202.684 176.84 203.17 177.62C203.552 178.232 203.746 178.942 203.728 179.664C203.709 180.385 203.478 181.085 203.065 181.676C202.521 182.585 201.767 183.35 200.867 183.908C199.966 184.466 198.946 184.8 197.89 184.882C197.739 184.886 197.583 184.89 197.432 184.893"
            fill="#C4BBBB" />
        <path
            d="M136.964 130.623C150.176 128.881 163.591 133.15 173.055 142.608C174.178 143.728 176.088 142.153 174.959 141.028C169.973 136.075 163.91 132.34 157.244 130.113C150.577 127.887 143.486 127.23 136.524 128.194C134.94 128.402 135.39 130.831 136.964 130.623Z"
            fill="#C4BBBB" />
        <path
            d="M172.316 155.939C161.545 150.118 149.278 148.473 137.248 150.438C135.675 150.692 136.12 153.126 137.693 152.867C149.012 151.024 160.73 152.467 170.885 157.955C172.275 158.701 173.717 156.695 172.316 155.939Z"
            fill="#C4BBBB" />
        <path
            d="M176.101 167.941C165.268 165.653 150.216 168.922 143.019 177.854C142.012 179.101 144.038 180.521 145.034 179.285C151.694 171.019 165.97 168.307 175.908 170.405C177.465 170.735 177.643 168.266 176.101 167.941Z"
            fill="#C4BBBB" />
        <path
            d="M178.799 179.47C172.488 182.281 166.842 189.386 167.566 196.556C167.729 198.142 170.158 197.687 170 196.111C169.389 190.09 174.637 184.031 179.848 181.714C181.307 181.066 180.258 178.822 178.789 179.471"
            fill="#C4BBBB" />
        <path
            d="M183.652 209.75C175.428 209.945 166.272 207.753 156.757 203.125C107.022 178.94 133.285 116.098 133.577 115.468C133.613 115.382 133.666 115.304 133.732 115.239C133.798 115.174 133.877 115.122 133.963 115.088C134.049 115.053 134.141 115.036 134.234 115.037C134.327 115.038 134.419 115.057 134.504 115.094C134.676 115.169 134.81 115.31 134.88 115.484C134.949 115.658 134.946 115.853 134.873 116.025C134.606 116.64 108.852 178.263 157.376 201.863C177.694 211.743 196.304 210.26 207.112 197.902C213.909 190.131 215.953 179.62 211.863 173.445C208.065 167.711 202.263 167.174 198.102 168.586C192.813 170.376 189.367 175.236 189.721 180.403C189.728 180.547 189.692 180.69 189.616 180.812C189.54 180.934 189.429 181.031 189.297 181.089C189.165 181.146 189.019 181.163 188.878 181.135C188.737 181.108 188.607 181.038 188.506 180.935C188.357 180.778 173.116 164.632 184.069 133.811C184.095 133.717 184.14 133.63 184.201 133.555C184.263 133.479 184.339 133.417 184.425 133.373C184.511 133.328 184.605 133.301 184.702 133.294C184.799 133.288 184.896 133.301 184.988 133.333C185.079 133.366 185.163 133.416 185.234 133.482C185.306 133.549 185.362 133.629 185.401 133.718C185.44 133.807 185.46 133.903 185.461 134C185.461 134.097 185.441 134.193 185.403 134.282C179.834 149.941 181.251 161.541 183.423 168.481C184.505 172.061 186.165 175.44 188.338 178.485C188.832 173.443 192.438 168.997 197.627 167.234C202.283 165.65 208.775 166.245 213.021 172.648C217.45 179.338 215.363 190.589 208.154 198.818C202.029 205.854 193.515 209.516 183.652 209.75Z"
            fill="#C4BBBB" />
        <path
            d="M123.802 212.286C130.9 215.931 151.399 246.569 151.888 270.776C151.888 270.776 136.714 288.428 115.856 282.942C115.856 282.942 101.237 252.517 104.304 220.037"
            fill="#C4BBBB" />
        <path
            d="M146.167 275.594C144.482 272.616 140.479 269.039 137.08 271.655C134.113 273.803 135.609 277.922 137.063 280.659C135.158 278.189 131.132 273.873 128.208 277.177C126.403 278.895 127.064 281.53 128.107 283.718C142.396 281.815 151.887 270.781 151.887 270.781C151.863 269.735 151.792 268.67 151.701 267.601C151.2 267.264 150.668 266.975 150.112 266.739C144.285 264.337 145.622 271.92 146.167 275.599"
            fill="#70828E" />
        <path
            d="M139.559 247.644C135.556 248.524 132.082 250.477 128.914 253.042C128.247 253.561 128.954 254.731 129.62 254.187C132.704 251.695 136.054 249.79 139.947 248.913C140.792 248.727 140.415 247.438 139.559 247.624"
            fill="#DCD0D0" />
        <path
            d="M140.016 254.162C137.603 255.771 134.666 256.395 131.808 255.906C130.954 255.74 130.628 257.046 131.482 257.211C134.692 257.785 138 257.103 140.722 255.307C140.863 255.209 140.961 255.06 140.996 254.892C141.03 254.723 141 254.548 140.909 254.401C140.819 254.255 140.676 254.149 140.51 254.104C140.344 254.06 140.167 254.08 140.016 254.162Z"
            fill="#DCD0D0" />
        <path
            d="M137.818 252.082L134.392 253.546C133.606 253.882 133.983 255.176 134.78 254.835L138.206 253.37C138.993 253.035 138.615 251.741 137.818 252.082Z"
            fill="#DCD0D0" />
        <path
            d="M128.599 277.319C127.743 278.345 127.142 279.536 127.542 280.91C127.601 281.072 127.719 281.205 127.873 281.283C128.027 281.36 128.205 281.375 128.37 281.326C128.535 281.276 128.675 281.165 128.76 281.016C128.846 280.866 128.871 280.69 128.831 280.522C128.594 279.648 129.039 278.908 129.572 278.246C130.104 277.585 129.146 276.642 128.599 277.319Z"
            fill="#95ADBA" />
        <path
            d="M136.792 272.406C136.46 272.884 136.182 273.396 135.963 273.935C135.65 274.732 136.827 275.388 137.145 274.586C137.36 274.046 137.637 273.534 137.969 273.057C138.455 272.342 137.283 271.696 136.792 272.406Z"
            fill="#95ADBA" />
        <path
            d="M136.499 275.753C135.855 275.315 135.282 276.215 135.672 276.754C135.93 277.412 137.05 277.335 136.956 276.542C136.955 276.382 136.912 276.226 136.832 276.087C136.752 275.949 136.637 275.834 136.499 275.753Z"
            fill="#95ADBA" />
        <path
            d="M146.31 268.202C146.291 268.347 146.252 268.489 146.194 268.623C145.88 269.42 147.053 270.077 147.372 269.274C147.522 268.923 147.618 268.55 147.657 268.17C147.738 267.308 146.395 267.35 146.31 268.202Z"
            fill="#95ADBA" />
        <path
            d="M145.611 270.593L145.616 270.809C145.62 270.988 145.695 271.158 145.825 271.281C145.954 271.404 146.127 271.471 146.306 271.467C146.485 271.463 146.654 271.388 146.778 271.258C146.901 271.129 146.968 270.956 146.964 270.777L146.959 270.561C146.954 270.382 146.879 270.212 146.75 270.089C146.621 269.966 146.447 269.899 146.269 269.903C146.09 269.907 145.92 269.982 145.797 270.112C145.673 270.241 145.606 270.414 145.611 270.593Z"
            fill="#95ADBA" />
        <path
            d="M189.615 210.725C182.703 214.702 163.675 246.278 164.339 270.48C164.339 270.48 180.333 287.393 200.902 280.925C200.902 280.925 214.067 249.84 209.458 217.543"
            fill="#C4BBBB" />
        <path
            d="M170.276 275.022C171.819 271.968 175.648 268.205 179.171 270.657C182.237 272.661 180.933 276.847 179.616 279.649C181.401 277.092 185.218 272.59 188.29 275.752C190.175 277.382 189.645 280.045 188.702 282.281C174.343 281.057 164.339 270.485 164.339 270.485C164.315 269.44 164.329 268.373 164.374 267.301C164.857 266.939 165.373 266.625 165.917 266.364C171.622 263.688 170.652 271.326 170.277 275.027"
            fill="#70828E" />
        <path
            d="M175.552 246.791C174.703 246.645 174.372 247.95 175.226 248.096C179.16 248.767 182.596 250.511 185.796 252.875C186.492 253.387 187.133 252.205 186.447 251.698C183.156 249.286 179.597 247.499 175.552 246.811"
            fill="#DCD0D0" />
        <path
            d="M183.692 254.675C180.86 255.3 177.897 254.816 175.411 253.323C175.256 253.248 175.078 253.236 174.914 253.288C174.751 253.341 174.613 253.454 174.53 253.604C174.446 253.755 174.424 253.931 174.467 254.098C174.509 254.264 174.614 254.408 174.76 254.5C177.564 256.165 180.9 256.689 184.08 255.964C184.925 255.758 184.547 254.469 183.692 254.675Z"
            fill="#DCD0D0" />
        <path
            d="M180.667 253.736C181.484 254.039 181.8 252.729 180.993 252.431L177.502 251.14C176.69 250.838 176.374 252.148 177.176 252.446L180.667 253.746"
            fill="#DCD0D0" />
        <path
            d="M164.823 267.099C164.56 267.634 164.368 268.201 164.254 268.787C164.222 268.956 164.256 269.131 164.348 269.276C164.441 269.422 164.586 269.526 164.753 269.567C164.92 269.609 165.097 269.585 165.247 269.501C165.397 269.416 165.509 269.278 165.56 269.113C165.647 268.641 165.795 268.183 166 267.75C166.075 267.595 166.087 267.417 166.035 267.253C165.982 267.089 165.869 266.952 165.719 266.869C165.568 266.785 165.392 266.763 165.225 266.806C165.059 266.848 164.915 266.953 164.823 267.099Z"
            fill="#95ADBA" />
        <path
            d="M174.971 271.043C174.106 271.482 173.371 272.139 172.838 272.95C172.388 273.7 173.57 274.346 174.015 273.601C174.438 272.993 175.013 272.506 175.682 272.188C176.442 271.768 175.736 270.627 174.971 271.043Z"
            fill="#95ADBA" />
        <path
            d="M172.023 274.408L172.025 274.518C172.03 274.697 172.105 274.867 172.234 274.99C172.364 275.114 172.537 275.181 172.715 275.176C172.894 275.172 173.064 275.097 173.187 274.968C173.311 274.838 173.378 274.665 173.373 274.486L173.371 274.376C173.366 274.197 173.291 274.027 173.162 273.904C173.033 273.78 172.86 273.714 172.681 273.718C172.502 273.722 172.332 273.797 172.209 273.926C172.086 274.056 172.019 274.229 172.023 274.408Z"
            fill="#95ADBA" />
        <path
            d="M183.939 276.137C183.556 276.403 183.193 276.698 182.853 277.017C182.234 277.63 183.212 278.558 183.831 277.95C184.083 277.702 184.357 277.479 184.65 277.281C185.347 276.762 184.651 275.627 183.939 276.137Z"
            fill="#95ADBA" />
        <path
            d="M99.3447 105.959C99.1803 96.9088 106.289 89.9701 115.952 89.7912C125.187 89.6224 131.785 95.9191 131.905 105.005C132.01 113.905 124.53 121.703 115.663 121.923C106.891 122.131 99.5172 114.928 99.3548 105.963M120.874 97.7824C119.318 97.8323 117.811 98.3418 116.544 99.2467C115.277 100.152 114.307 101.411 113.754 102.867C113.202 104.323 113.094 105.91 113.442 107.427C113.791 108.945 114.581 110.325 115.713 111.395C116.844 112.464 118.268 113.174 119.803 113.435C121.337 113.697 122.915 113.498 124.337 112.864C125.76 112.23 126.962 111.189 127.793 109.872C128.625 108.556 129.048 107.023 129.009 105.466C128.981 104.424 128.748 103.397 128.322 102.445C127.895 101.493 127.285 100.635 126.525 99.9202C125.766 99.2055 124.872 98.6482 123.896 98.2806C122.92 97.913 121.881 97.7422 120.839 97.7783"
            fill="#FEFEFE" />
        <path
            d="M120.855 97.7779C122.944 97.6929 124.982 98.4416 126.52 99.8592C128.058 101.277 128.969 103.247 129.054 105.337C129.139 107.426 128.39 109.464 126.973 111.002C125.555 112.54 123.585 113.451 121.495 113.536C120.46 113.578 119.428 113.416 118.455 113.059C117.483 112.702 116.591 112.157 115.83 111.455C114.292 110.037 113.381 108.067 113.296 105.977C113.211 103.887 113.96 101.85 115.377 100.312C116.795 98.7743 118.765 97.8628 120.855 97.7779ZM122.659 103.856C123.746 103.67 124.576 103.066 124.625 101.939C124.66 101.662 124.63 101.381 124.537 101.118C124.445 100.856 124.294 100.617 124.094 100.423C123.895 100.228 123.653 100.083 123.388 99.9973C123.122 99.9118 122.841 99.8889 122.566 99.9303C122.312 99.9156 122.059 99.957 121.824 100.052C121.588 100.146 121.377 100.291 121.204 100.477C121.031 100.663 120.901 100.884 120.824 101.126C120.746 101.367 120.723 101.623 120.756 101.874C120.785 103.101 121.566 103.601 122.658 103.841"
            fill="#060606" />
        <path
            d="M181.933 102.511C181.768 93.461 188.877 86.5222 198.54 86.3433C207.775 86.1745 214.373 92.4662 214.493 101.557C214.599 110.462 207.118 118.255 198.251 118.48C189.484 118.688 182.105 111.485 181.943 102.52M203.462 94.3396C201.908 94.3963 200.405 94.9114 199.143 95.8202C197.881 96.7289 196.916 97.9907 196.369 99.4467C195.822 100.903 195.718 102.488 196.07 104.003C196.422 105.518 197.214 106.895 198.347 107.961C199.479 109.027 200.902 109.734 202.435 109.993C203.969 110.252 205.545 110.052 206.965 109.418C208.385 108.784 209.586 107.744 210.416 106.429C211.247 105.114 211.67 103.582 211.632 102.027C211.605 100.985 211.371 99.9581 210.945 99.0062C210.519 98.0543 209.908 97.1963 209.149 96.4816C208.389 95.7668 207.496 95.2096 206.52 94.8419C205.544 94.4743 204.505 94.3036 203.462 94.3396Z"
            fill="#FEFEFE" />
        <path
            d="M203.452 94.3299C205.542 94.2449 207.58 94.9936 209.118 96.4112C210.655 97.8288 211.567 99.7991 211.652 101.889C211.737 103.978 210.988 106.016 209.57 107.554C208.153 109.092 206.182 110.003 204.093 110.088C203.058 110.13 202.025 109.968 201.053 109.611C200.081 109.254 199.189 108.709 198.428 108.007C197.666 107.305 197.051 106.46 196.616 105.52C196.181 104.58 195.935 103.564 195.893 102.529C195.851 101.494 196.014 100.462 196.371 99.4896C196.728 98.5176 197.273 97.6254 197.975 96.864C198.677 96.1026 199.522 95.487 200.462 95.0521C201.401 94.6173 202.418 94.3719 203.452 94.3299ZM205.256 100.408C206.343 100.222 207.174 99.6184 207.223 98.4906C207.257 98.2141 207.227 97.9334 207.135 97.6705C207.043 97.4075 206.891 97.1695 206.692 96.975C206.492 96.7805 206.25 96.6348 205.985 96.5493C205.72 96.4638 205.439 96.4409 205.163 96.4823C204.91 96.4668 204.657 96.5075 204.422 96.6014C204.186 96.6953 203.974 96.84 203.801 97.0253C203.628 97.2106 203.499 97.4319 203.421 97.6732C203.344 97.9146 203.32 98.1701 203.353 98.4214C203.382 99.653 204.169 100.152 205.256 100.388"
            fill="#060606" />
    </g>
    <defs>
        <clipPath id="clip0_200_2505">
            <rect width="298.66" height="282.992" fill="white"
                transform="translate(0.949219 7.86279) rotate(-1.35885)" />
        </clipPath>
    </defs>
</svg>
    