<svg width="230" height="230" viewBox="0 0 270 270" fill="none"
    xmlns="http://www.w3.org/2000/svg">
    <circle cx="134.861" cy="134.861" r="132.861" stroke="url(#a)" stroke-width="4"/>
    <circle cx="134.861" cy="134.861" r="128.118" fill="url(#b)"/>
    <mask id="d" style="mask-type:alpha" maskUnits="userSpaceOnUse" x="6" y="6" width="257" height="257">
        <circle cx="134.861" cy="134.861" r="128.118" fill="#40C49E"/>
    </mask>
    <g clip-path="url(#c)" mask="url(#d)">
        <path d="M160.328 156.422s14.922 42.642 25.481 50.81c10.56 8.168 29.805 2.164 33.408 2.642 3.603.478 14.396 42.003-16.581 49.76-1.922.478-36.778-16.827-42.308-17.068-5.529-.241-14.993 5.047-26.967 5.047-11.974 0-21.437-5.288-26.967-5.047-5.53.241-40.386 17.55-42.304 17.072-30.994-7.757-20.192-49.277-16.589-49.76 3.603-.482 22.839 5.53 33.416-2.642 10.577-8.172 25.477-50.81 25.477-50.81l53.934-.004Z" fill="#C4BBBB"/>
        <path d="m108.155 156.422-2.117 1.033c-.423 1.156-1.164 3.222-2.176 5.886l6.254 1.905s14.866 45.521 64.994 26.341c-7.795-15.218-14.769-35.144-14.769-35.144l-52.186-.021Zm69.635 46.707c-1.385 10.822-7.266 27.408-12.584 40.809 2.875 1.045 6.605 2.599 10.607 4.335 3.218-18.549 1.977-45.144 1.977-45.144Zm-88.176 45.716c4.234-1.85 8.236-3.544 11.352-4.704-10.293-18.351-12.118-40.051-12.118-40.051-3.269 16.788-.424 36.037.766 44.755Z" fill="#CEC4C4"/>
        <path d="M74.477 219.621a7.057 7.057 0 0 1-3.81-5.297c-.12-.72-1.216-.423-1.089.301a8.087 8.087 0 0 0 4.336 5.974c.648.339 1.22-.639.576-.978m-.784-5.433c-.423-.601-1.389-.033-.978.572a7.379 7.379 0 0 1 1.11 2.003.568.568 0 0 0 1.092-.301 8.167 8.167 0 0 0-1.224-2.274Zm1.935-1.562c-.643-.347-1.215.631-.571.978 1.334.729 1.829 2.138 1.854 3.591a.567.567 0 0 0 1.135 0c-.034-1.842-.732-3.654-2.418-4.569Zm117.816 1.698a7.045 7.045 0 0 1-3.811 5.297c-.648.339-.072 1.317.572.978a8.087 8.087 0 0 0 4.34-5.974c.122-.712-.97-1.021-1.093-.301m-3.201 2.439a7.261 7.261 0 0 1 1.109-2.003c.424-.605-.576-1.173-.978-.572a8.155 8.155 0 0 0-1.223 2.274.566.566 0 0 0 1.092.301Zm-1.804-4.137c-1.693.915-2.388 2.727-2.418 4.569a.565.565 0 0 0 .568.567.569.569 0 0 0 .567-.567c.021-1.453.521-2.862 1.855-3.591.643-.347.068-1.325-.572-.978Z" fill="#DCD0D0"/>
        <path d="M132.062 190.499c-15.701 0-28.424 15.48-28.424 34.567a40.174 40.174 0 0 0 3.929 17.529c5.64.424 14.633 5.022 25.807 5.022 9.455 0 17.339-3.29 22.966-4.556a40.172 40.172 0 0 0 4.15-17.995c0-19.087-12.728-34.567-28.428-34.567Z" fill="#D7E6F2"/>
        <path d="M132.061 190.499c-.529 0-1.058 0-1.579.055a40.516 40.516 0 0 0 17.089 5.551c-4.463-3.54-9.785-5.606-15.51-5.606Z" fill="#C8DEF3"/>
        <path d="M110.942 201.914c-4.548 6.131-7.317 14.248-7.317 23.152a40.182 40.182 0 0 0 3.929 17.53c5.242.389 13.38 4.386 23.474 4.953-1.143-5.783-3.01-11.516-4.721-17.063-3.302-10.425-8.625-19.973-15.365-28.572Zm49.535 23.152c0-8.168-2.337-15.666-6.237-21.594a54.409 54.409 0 0 0-3.366 4.751 102.723 102.723 0 0 0-9.002 16.907 111.713 111.713 0 0 0-6.419 22.441c8.528-.424 15.666-3.328 20.874-4.501a40.172 40.172 0 0 0 4.15-17.995" fill="#EDC0C0"/>
        <path d="M47.501 209.878c-3.603.483-14.396 42.003 16.59 49.76 0 0 10.585-23.559-16.59-49.76Z" fill="#DCD0D0"/>
        <path d="M59.052 217.944c-.61-2.117-3.353-2.117-5.665-1.736a72.765 72.765 0 0 1 3.844 5.081c1.313-.732 2.333-1.808 1.821-3.336m-3.629-7.016c-.025-.06-.063-.102-.093-.157-3.722-.512-6.613-1.059-7.807-.902a80.202 80.202 0 0 1 5.546 5.928c1.808-1.054 3.324-2.79 2.354-4.869Z" fill="#70828E"/>
        <path d="M51.727 210.81c-.572-.178-1.152-.297-1.727-.453a.567.567 0 0 0-.301 1.092c.572.157 1.156.275 1.727.453.699.22.995-.872.301-1.092Zm1.533.267a.563.563 0 0 0-.902.656.668.668 0 0 0 .423.356.569.569 0 0 0 .646-.315.571.571 0 0 0-.172-.697m3.146 5.33a6.906 6.906 0 0 0-1.223-.33c-.716-.152-1.017.94-.305 1.092.33.044.657.119.974.225.664.284 1.245-.695.571-.978" fill="#95ADBA"/>
        <path d="M57.206 216.695a.57.57 0 0 0-.37.949c.097.105.228.17.37.182a.565.565 0 0 0 .518-.565.57.57 0 0 0-.518-.566Z" fill="#95ADBA"/>
        <path d="M219.217 209.878c3.607.483 14.396 42.003-16.581 49.76 0 0-10.585-23.559 16.581-49.76Z" fill="#DCD0D0"/>
        <path d="M207.666 217.944c.618-2.117 3.354-2.117 5.674-1.736a63.684 63.684 0 0 0-3.845 5.081c-1.316-.732-2.337-1.808-1.829-3.336m3.655-7.016c.029-.06.067-.102.093-.157 3.722-.512 6.618-1.059 7.803-.902a81.06 81.06 0 0 0-5.542 5.928c-1.808-1.054-3.324-2.79-2.354-4.869Z" fill="#70828E"/>
        <path d="M208.907 218.977a.515.515 0 0 0 .246-.444c.013-.319.067-.635.161-.94.215-.699-.881-.995-1.089-.301-.124.402-.192.82-.203 1.241a.505.505 0 0 0 .517.542.566.566 0 0 0 .321 1.024.565.565 0 0 0 .544-.539.568.568 0 0 0-.134-.389.568.568 0 0 0-.363-.194Zm3.675-6.588a4.925 4.925 0 0 1-.072-.923.569.569 0 0 0-1.135 0c-.004.416.034.832.115 1.241.144.715 1.236.423 1.088-.301m.186.754a.569.569 0 0 0-.518.565.565.565 0 0 0 .518.565.566.566 0 0 0 .518-.565.569.569 0 0 0-.518-.565Z" fill="#95ADBA"/>
        <path d="M173.704 62.881s22.145-49.374 54.536-40.449c50.361 13.88 28.555 120.758-7.533 127.952-30.46 6.076-44.513-24.024-44.513-24.024l-2.49-63.479Z" fill="#C4BBBB"/>
        <path d="M198.114 95.51c-6.123-13.774-13.355-27.277-19.663-41.495a99.602 99.602 0 0 0-4.734 8.892l2.489 63.512s7.016 14.989 21.857 21.67a47.465 47.465 0 0 0 4.709-10.517c4.005-14.354 1.333-28.708-4.658-42.063Z" fill="#CEC4C4"/>
        <path d="M186.013 80.207s19.227-37.57 42.227-33.602c23 3.968 23.923 63.974-3.57 84.865-18.393 13.973-32.912-6.376-32.912-6.376l-5.745-44.887Z" fill="#D7E6F2"/>
        <path d="M198.114 95.51c-2.964-6.665-6.19-13.27-9.447-19.9-1.693 2.806-2.642 4.636-2.642 4.636l5.746 44.881s4.535 6.352 11.741 9.519c2.897-13.367.199-26.675-5.398-39.12" fill="#C8DEF3"/>
        <path d="M90.393 62.881S68.25 13.507 35.857 22.432c-50.36 13.88-28.55 120.758 7.537 127.952 30.46 6.076 44.514-24.024 44.514-24.024l2.485-63.479Z" fill="#C4BBBB"/>
        <path d="M78.089 80.207S58.857 42.655 35.857 46.622c-23 3.968-23.923 63.974 3.574 84.865 18.389 13.973 32.912-6.376 32.912-6.376l5.746-44.904Z" fill="#D7E6F2"/>
        <path d="M24.395 45.775c6-9.383 14.65-18.952 25.147-23.813a28.896 28.896 0 0 0-13.685.47C4.893 30.965 1.226 74.665 11.387 108.73c-2.637-21.323.187-42.676 13.008-62.954Zm107.666-7.422c-9.941-.593-37.383 4.772-48.713 30.82-11.331 26.049-23.436 36.19-18.508 59.854 3.98 19.088 23.466 33.005 67.209 33.005s63.233-13.917 67.208-33.005c4.929-23.664-7.155-33.805-18.49-59.854-11.335-26.048-38.776-31.413-48.706-30.82Z" fill="#DCD0D0"/>
        <path d="M89.86 89.053c14.019-22.822 34.478-38.108 58.058-48.363-6.503-1.99-12.308-2.54-15.869-2.337-9.942-.593-37.384 4.772-48.714 30.82-11.33 26.049-23.423 36.189-18.495 59.854 1.795 8.6 6.754 16.149 15.645 21.848a70.96 70.96 0 0 1-2.54-11.457c-2.38-17.847 2.777-35.296 11.898-50.365" fill="#EDE2E2"/>
        <path d="M136.855 30.622c-2.325 2.608-3.472 5.707-4.45 9.01-.352 1.19 1.498 1.693 1.85.508.876-2.964 1.859-5.814 3.955-8.164.817-.918-.534-2.278-1.355-1.354Z" fill="#EDE2E2"/>
        <path d="M131.092 28.377c-.077 3.98-.898 7.791-.149 11.763.229 1.215 2.075.698 1.847-.508-.712-3.777.148-7.47.22-11.255.021-1.236-1.897-1.236-1.918 0Z" fill="#EDE2E2"/>
        <path d="M125.608 25.087c.051 5.632.932 11.094 4.15 15.832.694 1.012 2.354.059 1.655-.966-3.044-4.48-3.844-9.548-3.887-14.866 0-1.236-1.926-1.236-1.918 0Z" fill="#EDE2E2"/>
        <path d="M176.194 108.153c0 3.899-2.176 7.058-4.869 7.058-2.693 0-4.874-3.159-4.874-7.058 0-3.9 2.185-7.059 4.874-7.059 2.688 0 4.869 3.159 4.869 7.059Zm-88.291 0c0 3.899 2.18 7.058 4.87 7.058 2.688 0 4.873-3.159 4.873-7.058 0-3.9-2.18-7.059-4.873-7.059s-4.87 3.159-4.87 7.059Z" fill="#5A6A72"/>
        <path d="M94.08 107.704h.217c2.303 0 2.303-3.569 0-3.569h-.216c-2.3 0-2.3 3.569 0 3.569Zm75.767-1.38c.076.072.144.139.216.216a1.806 1.806 0 0 0 1.27.526 1.804 1.804 0 0 0 1.27-.526 1.793 1.793 0 0 0 0-2.541l-.216-.216a1.793 1.793 0 0 0-2.54 0 1.796 1.796 0 0 0 0 2.541Z" fill="#95ADBA"/>
        <g opacity=".7">
            <mask id="e" style="mask-type:luminance" maskUnits="userSpaceOnUse" x="63" y="103" width="138" height="45">
                <path d="M200.388 103.212H63.709v43.798h136.679v-43.798Z" fill="#fff"/>
            </mask>
            <g mask="url(#e)" fill="#EF9A9A">
                <path d="M199.257 129.027c2.164-10.378 1.05-18.156-1.833-25.828a23.254 23.254 0 0 0-20.785 18.642 23.25 23.25 0 0 0 12.105 25.16 32.479 32.479 0 0 0 10.513-17.974Zm-134.417 0c-2.16-10.378-1.046-18.156 1.838-25.828a23.247 23.247 0 0 1 20.782 18.644 23.251 23.251 0 0 1-12.106 25.158 32.503 32.503 0 0 1-10.514-17.986"/>
            </g>
        </g>
        <path d="M116.344 114.83s-23.864 52.144 17.495 73.484c37.113 19.151 54.663-11.856 47.215-23.678-6.224-9.891-20.323-4.107-19.879 5.759 0 0-12.495-13.461-2.676-39.141" fill="#DCD0D0"/>
        <path d="M133.839 188.314c-41.359-21.34-17.495-73.484-17.495-73.484s-3.074 22.864.258 39.767c3.811 19.342 17.237 33.717 17.237 33.717Z" fill="#EDE2E2"/>
        <path d="M168.175 174.299c-2.803 0-5.861-1.791-7.393-3.561a.523.523 0 0 1 .055-.737.515.515 0 0 1 .732.055c1.461 1.694 4.438 3.32 6.927 3.193a4.561 4.561 0 0 0 3.625-2.139 2.066 2.066 0 0 0 .123-2.312 3.359 3.359 0 0 0-2.88-1.583 1.797 1.797 0 0 0-1.621 1.19.521.521 0 0 1-.962-.403 2.807 2.807 0 0 1 2.516-1.824 4.316 4.316 0 0 1 3.853 2.117 3.093 3.093 0 0 1-.17 3.412 5.582 5.582 0 0 1-4.42 2.596h-.385m-49.82-46.893c11.157-1.203 22.365 2.659 30.143 10.81.923.965 2.562-.322 1.634-1.292a38.439 38.439 0 0 0-32.099-11.572c-1.338.144-1.007 2.198.322 2.054Zm29.254 22.017c-8.951-5.115-19.244-6.745-29.41-5.331-1.33.183-1.004 2.24.326 2.054 9.565-1.325 19.4.123 27.839 4.946 1.156.656 2.409-1.004 1.245-1.669Zm2.947 10.179c-9.074-2.142-21.81.309-28.047 7.685-.872 1.029.805 2.265 1.668 1.245 5.771-6.826 17.843-8.824 26.167-6.859 1.304.309 1.503-1.766.212-2.071Zm2.041 9.76c-5.369 2.24-10.263 8.108-9.798 14.159.106 1.338 2.16 1.003 2.058-.326-.394-5.081 4.145-10.077 8.579-11.924 1.24-.516.402-2.426-.847-1.909" fill="#C4BBBB"/>
        <path d="M156.077 194.953c-6.927 0-14.59-2.028-22.508-6.114-41.385-21.353-18.021-73.729-17.763-74.254a.594.594 0 0 1 .788-.297.598.598 0 0 1 .292.792c-.237.512-23.148 51.872 17.229 72.709 16.907 8.722 32.603 7.846 41.948-2.342 5.877-6.406 7.807-15.213 4.488-20.493-3.083-4.903-7.956-5.471-11.487-4.365-4.489 1.401-7.486 5.423-7.292 9.78a.596.596 0 0 1-1.033.424c-.123-.136-12.63-14.032-2.794-39.759a.607.607 0 0 1 .308-.362.597.597 0 0 1 .805.786c-5 13.07-4.039 22.864-2.35 28.749a28.915 28.915 0 0 0 3.938 8.52c.517-4.235 3.641-7.906 8.045-9.286 3.95-1.241 9.404-.61 12.851 4.865 3.594 5.72 1.613 15.15-4.62 21.933-5.297 5.801-12.537 8.714-20.845 8.714Zm-50.432.94c5.902 3.209 22.546 29.41 22.474 49.798 0 0-13.125 14.557-30.574 9.522 0 0-11.7-25.904-8.469-53.185" fill="#C4BBBB"/>
        <path d="M123.208 249.633c-1.359-2.541-4.658-5.632-7.571-3.498-2.54 1.749-1.363 5.246-.195 7.579-1.554-2.117-4.856-5.83-7.384-3.107-1.554 1.41-1.05 3.641-.216 5.504 12.067-1.317 20.277-10.416 20.277-10.416 0-.881-.038-1.778-.093-2.68a7.97 7.97 0 0 0-1.321-.758c-4.856-2.138-3.883 4.272-3.497 7.38" fill="#70828E"/>
        <path d="M118.203 225.972c-3.388.661-6.351 2.236-9.07 4.332-.571.423 0 1.422.572.978 2.646-2.037 5.504-3.574 8.798-4.234.716-.14.424-1.233-.3-1.093m.254 5.513a9.552 9.552 0 0 1-6.944 1.304c-.715-.156-1.016.936-.3 1.093a10.71 10.71 0 0 0 7.816-1.419.57.57 0 0 0 .176-.759.568.568 0 0 0-.748-.219Zm-1.808-1.795-2.913 1.164c-.669.267-.377 1.364.3 1.093l2.913-1.165c.669-.267.377-1.363-.3-1.092Z" fill="#DCD0D0"/>
        <path d="M108.384 250.733c-.741.847-1.27 1.838-.961 3.002a.566.566 0 0 0 1.092-.3c-.182-.741.208-1.355.669-1.901.462-.547-.326-1.359-.8-.801Zm6.995-3.971a6.61 6.61 0 0 0-.728 1.27c-.28.665.698 1.241.982.572.192-.45.435-.876.724-1.271.424-.592-.55-1.16-.978-.571Zm-.314 2.811c-.533-.381-1.033.365-.715.826.203.559 1.147.517 1.084-.152a.78.78 0 0 0-.369-.674Zm8.41-6.16c-.019.121-.055.24-.106.351-.28.665.694 1.241.978.572.133-.293.222-.604.262-.923.085-.724-1.046-.716-1.134 0Zm-.636 1.998v.182c0 .151.06.295.167.401a.564.564 0 0 0 .802 0 .567.567 0 0 0 .166-.401v-.182a.569.569 0 0 0-1.135 0Z" fill="#95ADBA"/>
        <path d="M161.078 195.893c-5.898 3.209-22.547 29.41-22.471 49.798 0 0 13.126 14.557 30.571 9.522 0 0 11.703-25.904 8.468-53.185" fill="#C4BBBB"/>
        <path d="M143.515 249.633c1.359-2.541 4.657-5.632 7.575-3.498 2.54 1.749 1.359 5.246.194 7.579 1.554-2.117 4.857-5.83 7.381-3.107 1.554 1.41 1.054 3.641.216 5.504-12.064-1.317-20.274-10.416-20.274-10.416 0-.881.034-1.778.094-2.68a7.786 7.786 0 0 1 1.316-.758c4.857-2.138 3.887 4.272 3.498 7.38" fill="#70828E"/>
        <path d="M148.519 225.972c-.711-.139-1.016.953-.3 1.093 3.298.643 6.156 2.18 8.803 4.234.575.444 1.138-.538.571-.978-2.722-2.096-5.682-3.671-9.074-4.332m6.695 6.783a9.548 9.548 0 0 1-6.944-1.304.565.565 0 0 0-.748.219.57.57 0 0 0 .176.759 10.71 10.71 0 0 0 7.816 1.419c.716-.157.424-1.249-.3-1.093Zm-2.528-.851c.682.271.974-.825.301-1.092l-2.913-1.156c-.678-.271-.97.825-.301 1.092l2.913 1.165" fill="#DCD0D0"/>
        <path d="M139.081 242.854a5.696 5.696 0 0 0-.512 1.41.567.567 0 0 0 1.092.3c.083-.395.217-.778.398-1.139a.564.564 0 0 0-.219-.747.565.565 0 0 0-.759.176Zm8.464 3.523a4.675 4.675 0 0 0-1.833 1.562c-.394.622.589 1.19.978.572a3.577 3.577 0 0 1 1.431-1.156c.648-.339.076-1.313-.576-.978Z" fill="#95ADBA"/>
        <path d="M144.997 249.15v.093a.563.563 0 0 0 .567.567.564.564 0 0 0 .567-.567v-.093a.563.563 0 0 0-.567-.567.563.563 0 0 0-.567.567Zm9.997 1.693a8.12 8.12 0 0 0-.932.72c-.533.504.271 1.304.805.805.217-.203.452-.386.702-.546.597-.424.034-1.393-.575-.979Z" fill="#95ADBA"/>
        <path d="M87.18 105.896c.041-7.621 6.164-13.32 14.302-13.278 7.778.042 13.206 5.474 13.126 13.126-.089 7.494-6.542 13.909-14.011 13.917-7.388 0-13.452-6.211-13.41-13.761m18.279-6.457a6.641 6.641 0 0 0-6.095 4.138 6.64 6.64 0 0 0 8.71 8.627 6.638 6.638 0 0 0-.08-12.285 6.656 6.656 0 0 0-2.564-.484" fill="#FEFEFE"/>
        <path d="M105.45 99.439a6.639 6.639 0 1 1 .224 13.278 6.633 6.633 0 0 1-4.727-1.865 6.64 6.64 0 0 1 4.503-11.413Zm1.397 5.153c.919-.136 1.63-.627 1.694-1.575a1.517 1.517 0 0 0-.417-1.287 1.527 1.527 0 0 0-1.277-.445 1.455 1.455 0 0 0-1.49.972c-.07.201-.095.416-.072.629 0 1.033.647 1.469 1.562 1.693" fill="#060606"/>
        <path d="M156.772 104.643c.042-7.622 6.165-13.32 14.303-13.278 7.778.042 13.206 5.47 13.126 13.125-.089 7.499-6.542 13.91-14.011 13.922-7.384 0-13.452-6.211-13.41-13.761m18.279-6.457a6.637 6.637 0 0 0-6.073 4.158 6.633 6.633 0 0 0 1.495 7.207 6.643 6.643 0 0 0 7.226 1.398 6.636 6.636 0 0 0 4.076-6.128 6.645 6.645 0 0 0-1.98-4.718 6.65 6.65 0 0 0-4.744-1.917Z" fill="#FEFEFE"/>
        <path d="M175.051 98.186a6.638 6.638 0 0 1 6.751 6.526 6.64 6.64 0 1 1-6.751-6.526Zm1.397 5.152c.919-.135 1.63-.626 1.694-1.575a1.517 1.517 0 0 0-.417-1.286 1.516 1.516 0 0 0-1.277-.445 1.454 1.454 0 0 0-1.157.43 1.436 1.436 0 0 0-.405 1.166c0 1.037.652 1.473 1.562 1.694" fill="#060606"/>
    </g>
    <g clip-path="url(#f)">
        <path d="m108.155 156.422-2.117 1.033c-.423 1.156-1.164 3.223-2.176 5.886l6.254 1.905s14.866 45.522 64.994 26.341c-7.795-15.218-14.769-35.143-14.769-35.143l-52.186-.022Zm69.635 46.707c-1.385 10.823-7.266 27.408-12.584 40.809 2.875 1.046 6.605 2.6 10.607 4.336 3.218-18.55 1.977-45.145 1.977-45.145Zm-88.176 45.716c4.234-1.85 8.236-3.544 11.352-4.704-10.293-18.351-12.118-40.051-12.118-40.051-3.269 16.789-.424 36.037.766 44.755Z" fill="#CEC4C4"/>
        <path d="M74.477 219.621a7.048 7.048 0 0 1-3.81-5.297c-.12-.719-1.216-.423-1.089.301a8.087 8.087 0 0 0 4.336 5.974c.648.339 1.22-.639.576-.978m-.784-5.432c-.423-.602-1.389-.034-.978.571a7.379 7.379 0 0 1 1.11 2.003.565.565 0 0 0 .688.367.567.567 0 0 0 .404-.668 8.148 8.148 0 0 0-1.224-2.273Zm1.935-1.563c-.643-.347-1.215.631-.571.978 1.334.729 1.829 2.139 1.854 3.591a.565.565 0 0 0 .568.567.565.565 0 0 0 .567-.567c-.034-1.842-.732-3.654-2.418-4.569Zm117.816 1.698a7.045 7.045 0 0 1-3.811 5.297c-.648.339-.072 1.317.572.978a8.093 8.093 0 0 0 4.34-5.974c.122-.711-.97-1.02-1.093-.301m-3.201 2.439a7.261 7.261 0 0 1 1.109-2.003c.424-.605-.576-1.173-.978-.571a8.136 8.136 0 0 0-1.223 2.273.566.566 0 0 0 1.092.301Zm-1.804-4.137c-1.693.915-2.388 2.727-2.418 4.569 0 .151.06.295.167.401a.564.564 0 0 0 .968-.401c.021-1.452.521-2.862 1.855-3.591.643-.347.068-1.325-.572-.978Z" fill="#DCD0D0"/>
        <path d="M132.062 190.499c-15.701 0-28.424 15.48-28.424 34.567a40.182 40.182 0 0 0 3.929 17.53c5.64.423 14.633 5.021 25.807 5.021 9.455 0 17.339-3.29 22.966-4.556a40.166 40.166 0 0 0 4.15-17.995c0-19.087-12.728-34.567-28.428-34.567Z" fill="#D7E6F2"/>
        <path d="M132.061 190.499c-.529 0-1.058 0-1.579.055a40.516 40.516 0 0 0 17.089 5.551c-4.463-3.54-9.785-5.606-15.51-5.606Z" fill="#C8DEF3"/>
        <path d="M110.942 201.914c-4.548 6.131-7.317 14.248-7.317 23.152a40.182 40.182 0 0 0 3.929 17.53c5.242.389 13.38 4.386 23.474 4.954-1.143-5.784-3.01-11.517-4.721-17.064-3.302-10.424-8.625-19.972-15.365-28.572Zm49.535 23.152c0-8.167-2.337-15.666-6.237-21.594a54.713 54.713 0 0 0-3.366 4.751 102.723 102.723 0 0 0-9.002 16.907 111.713 111.713 0 0 0-6.419 22.441c8.528-.424 15.666-3.328 20.874-4.501a40.172 40.172 0 0 0 4.15-17.995" fill="#EDC0C0"/>
        <path d="M59.052 217.945c-.61-2.117-3.353-2.117-5.665-1.736a72.297 72.297 0 0 1 3.844 5.081c1.313-.733 2.333-1.808 1.821-3.337m-3.629-7.016c-.025-.059-.063-.102-.093-.157-3.722-.512-6.613-1.058-7.807-.902a80.202 80.202 0 0 1 5.546 5.928c1.808-1.054 3.324-2.79 2.354-4.869Z" fill="#70828E"/>
        <path d="M51.727 210.81c-.572-.178-1.152-.296-1.727-.453a.567.567 0 0 0-.301 1.092c.572.157 1.156.275 1.727.453.699.22.995-.872.301-1.092Zm1.533.267a.563.563 0 0 0-.902.656.668.668 0 0 0 .423.356.569.569 0 0 0 .646-.315.571.571 0 0 0-.172-.697m3.146 5.331a6.824 6.824 0 0 0-1.223-.331c-.716-.152-1.017.94-.305 1.093.33.043.657.118.974.224.664.284 1.245-.694.571-.978" fill="#95ADBA"/>
        <path d="M57.206 216.696a.568.568 0 0 0 0 1.13.565.565 0 0 0 .518-.565.57.57 0 0 0-.518-.565Z" fill="#95ADBA"/>
        <path d="M207.666 217.945c.618-2.117 3.354-2.117 5.674-1.736a63.325 63.325 0 0 0-3.845 5.081c-1.316-.733-2.337-1.808-1.829-3.337m3.655-7.016c.029-.059.067-.102.093-.157 3.722-.512 6.618-1.058 7.803-.902a81.06 81.06 0 0 0-5.542 5.928c-1.808-1.054-3.324-2.79-2.354-4.869Z" fill="#70828E"/>
        <path d="M208.907 218.978a.518.518 0 0 0 .246-.445c.013-.319.067-.635.161-.94.215-.699-.881-.995-1.089-.301-.124.403-.192.82-.203 1.241a.503.503 0 0 0 .311.503c.065.027.135.04.206.039a.564.564 0 0 0-.206.627.573.573 0 0 0 .527.398.566.566 0 0 0 .544-.54.566.566 0 0 0-.497-.582Zm3.675-6.589a4.912 4.912 0 0 1-.072-.923.57.57 0 0 0-.567-.567.567.567 0 0 0-.568.567 6.08 6.08 0 0 0 .115 1.241c.144.715 1.236.423 1.088-.301m.186.754a.566.566 0 0 0-.518.565.569.569 0 0 0 .518.565.569.569 0 0 0 .518-.565.565.565 0 0 0-.518-.565Z" fill="#95ADBA"/>
        <path d="M173.704 62.882s22.145-49.375 54.536-40.45c50.361 13.88 28.555 120.759-7.533 127.952-30.46 6.076-44.513-24.024-44.513-24.024l-2.49-63.478Z" fill="#C4BBBB"/>
        <path d="M198.114 95.51c-6.123-13.774-13.355-27.277-19.663-41.495a99.63 99.63 0 0 0-4.734 8.892l2.489 63.512s7.016 14.989 21.857 21.67a47.465 47.465 0 0 0 4.709-10.517c4.005-14.354 1.333-28.708-4.658-42.062Z" fill="#CEC4C4"/>
        <path d="M186.013 80.208s19.227-37.57 42.227-33.602c23 3.967 23.923 63.973-3.57 84.865-18.393 13.972-32.912-6.377-32.912-6.377l-5.745-44.886Z" fill="#D7E6F2"/>
        <path d="M198.114 95.51c-2.964-6.665-6.19-13.27-9.447-19.9-1.693 2.807-2.642 4.636-2.642 4.636l5.746 44.882s4.535 6.351 11.741 9.518c2.897-13.367.199-26.675-5.398-39.12" fill="#C8DEF3"/>
        <path d="M90.393 62.882S68.25 13.507 35.857 22.431c-50.36 13.88-28.55 120.759 7.537 127.952 30.46 6.076 44.514-24.024 44.514-24.024l2.485-63.478Z" fill="#C4BBBB"/>
        <path d="M78.089 80.208S58.857 42.655 35.857 46.623c-23 3.967-23.923 63.973 3.574 84.864 18.389 13.973 32.912-6.376 32.912-6.376l5.746-44.903Z" fill="#D7E6F2"/>
        <path d="M24.395 45.776c6-9.383 14.65-18.952 25.147-23.813a28.894 28.894 0 0 0-13.685.47c-30.964 8.532-34.631 52.232-24.47 86.296-2.637-21.323.187-42.676 13.008-62.953Zm107.666-7.423c-9.941-.593-37.383 4.772-48.713 30.82-11.331 26.049-23.436 36.19-18.508 59.854 3.98 19.088 23.466 33.006 67.209 33.006s63.233-13.918 67.208-33.006c4.929-23.664-7.155-33.805-18.49-59.853-11.335-26.049-38.776-31.414-48.706-30.82Z" fill="#DCD0D0"/>
        <path d="M89.86 89.053c14.019-22.822 34.478-38.107 58.058-48.363-6.503-1.99-12.308-2.54-15.869-2.337-9.942-.593-37.384 4.772-48.714 30.82-11.33 26.049-23.423 36.19-18.495 59.854 1.795 8.6 6.754 16.149 15.645 21.849a70.996 70.996 0 0 1-2.54-11.458c-2.38-17.847 2.777-35.296 11.898-50.365" fill="#EDE2E2"/>
        <path d="M136.855 30.622c-2.325 2.608-3.472 5.707-4.45 9.01-.352 1.19 1.498 1.694 1.85.508.876-2.964 1.859-5.813 3.955-8.163.817-.92-.534-2.278-1.355-1.355Z" fill="#EDE2E2"/>
        <path d="M131.092 28.378c-.077 3.98-.898 7.79-.149 11.762.229 1.215 2.075.699 1.847-.508-.712-3.777.148-7.47.22-11.254.021-1.237-1.897-1.237-1.918 0Z" fill="#EDE2E2"/>
        <path d="M125.608 25.087c.051 5.632.932 11.094 4.15 15.832.694 1.012 2.354.06 1.655-.965-3.044-4.48-3.844-9.549-3.887-14.867 0-1.236-1.926-1.236-1.918 0Z" fill="#EDE2E2"/>
        <path d="M176.194 108.153c0 3.9-2.176 7.058-4.869 7.058-2.693 0-4.874-3.158-4.874-7.058s2.185-7.058 4.874-7.058c2.688 0 4.869 3.158 4.869 7.058Zm-88.291 0c0 3.9 2.18 7.058 4.87 7.058 2.688 0 4.873-3.158 4.873-7.058s-2.18-7.058-4.873-7.058-4.87 3.158-4.87 7.058Z" fill="#5A6A72"/>
        <path d="M94.08 107.704h.217c2.303 0 2.303-3.569 0-3.569h-.216c-2.3 0-2.3 3.569 0 3.569Zm75.767-1.38a5.5 5.5 0 0 1 .216.216 1.79 1.79 0 0 0 1.27.526 1.786 1.786 0 0 0 1.27-.526 1.793 1.793 0 0 0 0-2.541l-.216-.216a1.797 1.797 0 0 0-2.54 2.541Z" fill="#95ADBA"/>
        <g opacity=".7">
            <mask id="g" style="mask-type:luminance" maskUnits="userSpaceOnUse" x="63" y="103" width="138" height="45">
                <path d="M200.388 103.212H63.709v43.798h136.679v-43.798Z" fill="#fff"/>
            </mask>
            <g mask="url(#g)" fill="#EF9A9A">
                <path d="M199.257 129.028c2.164-10.378 1.05-18.157-1.833-25.829a23.254 23.254 0 0 0-20.785 18.643 23.246 23.246 0 0 0 12.105 25.159 32.48 32.48 0 0 0 10.513-17.973Zm-134.417 0c-2.16-10.378-1.046-18.157 1.838-25.829a23.248 23.248 0 0 1 18.925 33.243 23.247 23.247 0 0 1-10.25 10.559 32.503 32.503 0 0 1-10.513-17.986"/>
            </g>
        </g>
        <path d="M116.344 114.83s-23.864 52.144 17.495 73.484c37.113 19.151 54.663-11.856 47.215-23.677-6.224-9.891-20.323-4.108-19.879 5.758 0 0-12.495-13.46-2.676-39.14" fill="#DCD0D0"/>
        <path d="M133.839 188.314c-41.359-21.34-17.495-73.484-17.495-73.484s-3.074 22.865.258 39.767c3.811 19.342 17.237 33.717 17.237 33.717Z" fill="#EDE2E2"/>
        <path d="M168.175 174.299c-2.803 0-5.861-1.791-7.393-3.561a.521.521 0 0 1 .055-.737.509.509 0 0 1 .573-.071.513.513 0 0 1 .159.126c1.461 1.694 4.438 3.32 6.927 3.193a4.561 4.561 0 0 0 3.625-2.138 2.069 2.069 0 0 0 .123-2.312 3.354 3.354 0 0 0-2.88-1.584 1.798 1.798 0 0 0-1.621 1.19.536.536 0 0 1-.283.281.528.528 0 0 1-.399-.002.524.524 0 0 1-.28-.681 2.81 2.81 0 0 1 2.516-1.825 4.313 4.313 0 0 1 3.853 2.117 3.096 3.096 0 0 1-.17 3.413 5.579 5.579 0 0 1-4.42 2.595h-.385m-49.82-46.893c11.157-1.202 22.365 2.659 30.143 10.81.923.965 2.562-.322 1.634-1.292a38.45 38.45 0 0 0-32.099-11.571c-1.338.143-1.007 2.197.322 2.053Zm29.254 22.017c-8.951-5.114-19.244-6.745-29.41-5.33-1.33.182-1.004 2.24.326 2.053 9.565-1.325 19.4.123 27.839 4.946 1.156.656 2.409-1.004 1.245-1.669Zm2.947 10.179c-9.074-2.142-21.81.309-28.047 7.685-.872 1.029.805 2.266 1.668 1.245 5.771-6.825 17.843-8.824 26.167-6.859 1.304.309 1.503-1.766.212-2.071Zm2.041 9.76c-5.369 2.24-10.263 8.109-9.798 14.159.106 1.338 2.16 1.004 2.058-.326-.394-5.081 4.145-10.077 8.579-11.923 1.24-.517.402-2.426-.847-1.91" fill="#C4BBBB"/>
        <path d="M156.077 194.953c-6.927 0-14.59-2.028-22.508-6.114-41.385-21.353-18.021-73.729-17.763-74.254a.579.579 0 0 1 .333-.312.578.578 0 0 1 .455.015.601.601 0 0 1 .292.792c-.237.513-23.148 51.873 17.229 72.709 16.907 8.722 32.603 7.846 41.948-2.342 5.877-6.406 7.807-15.213 4.488-20.493-3.083-4.903-7.956-5.47-11.487-4.365-4.489 1.401-7.486 5.424-7.292 9.781a.593.593 0 0 1-.724.599.598.598 0 0 1-.309-.176c-.123-.135-12.63-14.032-2.794-39.759a.594.594 0 0 1 .783-.383.592.592 0 0 1 .34.332.607.607 0 0 1 .045.238.604.604 0 0 1-.055.237c-5 13.071-4.039 22.864-2.35 28.75a28.91 28.91 0 0 0 3.938 8.519c.517-4.234 3.641-7.905 8.045-9.286 3.95-1.24 9.404-.609 12.851 4.865 3.594 5.721 1.613 15.15-4.62 21.933-5.297 5.801-12.537 8.714-20.845 8.714Zm-50.432.94c5.902 3.21 22.546 29.41 22.474 49.798 0 0-13.125 14.557-30.574 9.522 0 0-11.7-25.904-8.469-53.185" fill="#C4BBBB"/>
        <path d="M123.208 249.633c-1.359-2.541-4.658-5.631-7.571-3.497-2.54 1.748-1.363 5.246-.195 7.579-1.554-2.117-4.856-5.831-7.384-3.108-1.554 1.41-1.05 3.641-.216 5.504 12.067-1.317 20.277-10.416 20.277-10.416 0-.88-.038-1.778-.093-2.68a7.97 7.97 0 0 0-1.321-.758c-4.856-2.138-3.883 4.272-3.497 7.38" fill="#70828E"/>
        <path d="M118.203 225.972c-3.388.661-6.351 2.236-9.07 4.332-.571.423 0 1.423.572.978 2.646-2.037 5.504-3.574 8.798-4.234.716-.14.424-1.232-.3-1.093m.254 5.513a9.547 9.547 0 0 1-6.944 1.304c-.715-.156-1.016.936-.3 1.093 2.691.547 5.489.039 7.816-1.419a.57.57 0 0 0 .176-.758.57.57 0 0 0-.748-.22Zm-1.808-1.795-2.913 1.164c-.669.267-.377 1.364.3 1.093l2.913-1.165c.669-.266.377-1.363-.3-1.092Z" fill="#DCD0D0"/>
        <path d="M108.384 250.734c-.741.847-1.27 1.837-.961 3.002a.567.567 0 0 0 1.092-.301c-.182-.741.208-1.355.669-1.901.462-.546-.326-1.359-.8-.8Zm6.995-3.972a6.61 6.61 0 0 0-.728 1.27c-.28.665.698 1.241.982.572.192-.45.435-.876.724-1.27.424-.593-.55-1.161-.978-.572Zm-.314 2.812c-.533-.381-1.033.364-.715.825.203.559 1.147.517 1.084-.152a.77.77 0 0 0-.369-.673Zm8.41-6.161c-.019.121-.055.24-.106.351-.28.665.694 1.241.978.572.133-.293.222-.604.262-.923.085-.724-1.046-.716-1.134 0Zm-.636 1.998v.182a.568.568 0 0 0 1.135 0v-.182a.57.57 0 0 0-.567-.567.567.567 0 0 0-.568.567Z" fill="#95ADBA"/>
        <path d="M161.078 195.893c-5.898 3.21-22.547 29.41-22.471 49.798 0 0 13.126 14.557 30.571 9.522 0 0 11.703-25.904 8.468-53.185" fill="#C4BBBB"/>
        <path d="M143.515 249.633c1.359-2.541 4.657-5.631 7.575-3.497 2.54 1.748 1.359 5.246.194 7.579 1.554-2.117 4.857-5.831 7.381-3.108 1.554 1.41 1.054 3.641.216 5.504-12.064-1.317-20.274-10.416-20.274-10.416 0-.88.034-1.778.094-2.68a7.786 7.786 0 0 1 1.316-.758c4.857-2.138 3.887 4.272 3.498 7.38" fill="#70828E"/>
        <path d="M148.519 225.973c-.711-.14-1.016.952-.3 1.092 3.298.644 6.156 2.181 8.803 4.234.575.445 1.138-.538.571-.978-2.722-2.096-5.682-3.671-9.074-4.332m6.695 6.783a9.543 9.543 0 0 1-6.944-1.304.571.571 0 0 0-.811.634.57.57 0 0 0 .239.344 10.705 10.705 0 0 0 7.816 1.419c.716-.157.424-1.249-.3-1.093Zm-2.528-.851c.682.271.974-.825.301-1.092l-2.913-1.156c-.678-.271-.97.826-.301 1.092l2.913 1.165" fill="#DCD0D0"/>
        <path d="M139.081 242.854a5.696 5.696 0 0 0-.512 1.41.566.566 0 0 0 1.092.301c.083-.396.217-.779.398-1.139a.567.567 0 0 0-.978-.572Zm8.464 3.523a4.675 4.675 0 0 0-1.833 1.562c-.394.623.589 1.19.978.572a3.577 3.577 0 0 1 1.431-1.156c.648-.339.076-1.313-.576-.978Z" fill="#95ADBA"/>
        <path d="M144.997 249.15v.093a.567.567 0 1 0 1.134 0v-.093a.564.564 0 0 0-.567-.567.567.567 0 0 0-.567.567Zm9.997 1.694a8.01 8.01 0 0 0-.932.72c-.533.503.271 1.304.805.804.217-.203.452-.386.702-.546.597-.424.034-1.393-.575-.978Z" fill="#95ADBA"/>
        <path d="M87.18 105.896c.041-7.621 6.164-13.32 14.302-13.278 7.778.042 13.206 5.475 13.126 13.126-.089 7.494-6.542 13.909-14.011 13.917-7.388 0-13.452-6.211-13.41-13.761m18.279-6.457a6.635 6.635 0 0 0-6.095 4.139 6.637 6.637 0 0 0 4.881 9.017 6.638 6.638 0 0 0 3.749-12.676 6.656 6.656 0 0 0-2.564-.484" fill="#FEFEFE"/>
        <path d="M105.45 99.44a6.638 6.638 0 0 1 6.751 6.526 6.641 6.641 0 0 1-9.076 6.289 6.643 6.643 0 0 1-2.337-10.792 6.64 6.64 0 0 1 4.662-2.024Zm1.397 5.152c.919-.135 1.63-.627 1.694-1.575a1.517 1.517 0 0 0-.417-1.286 1.518 1.518 0 0 0-1.277-.446 1.456 1.456 0 0 0-1.562 1.601c0 1.033.647 1.469 1.562 1.693" fill="#060606"/>
        <path d="M156.772 104.643c.042-7.621 6.165-13.32 14.303-13.278 7.778.042 13.206 5.47 13.126 13.126-.089 7.498-6.542 13.909-14.011 13.921-7.384 0-13.452-6.211-13.41-13.761m18.279-6.457a6.637 6.637 0 0 0-6.416 7.987 6.641 6.641 0 0 0 9.064 4.777 6.645 6.645 0 0 0 4.076-6.129 6.645 6.645 0 0 0-1.98-4.718 6.652 6.652 0 0 0-4.744-1.917Z" fill="#FEFEFE"/>
        <path d="M175.051 98.186a6.638 6.638 0 0 1 6.751 6.527 6.637 6.637 0 0 1-6.527 6.751 6.633 6.633 0 0 1-6.203-3.995 6.649 6.649 0 0 1-.086-5.081 6.643 6.643 0 0 1 6.065-4.202Zm1.397 5.153c.919-.136 1.63-.627 1.694-1.575a1.523 1.523 0 0 0-1.694-1.732 1.454 1.454 0 0 0-1.157.43 1.44 1.44 0 0 0-.405 1.166c0 1.037.652 1.474 1.562 1.694" fill="#060606"/>
    </g>
    <defs>
        <linearGradient id="a" x1="134.861" y1="0" x2="134.861" y2="269.721" gradientUnits="userSpaceOnUse">
            <stop stop-color="#FF948B"/>
            <stop offset="1" stop-color="#40C49E"/>
        </linearGradient>
        <linearGradient id="b" x1="134.861" y1="6.743" x2="134.861" y2="262.978" gradientUnits="userSpaceOnUse">
            <stop offset=".354" stop-color="#40C49E"/>
            <stop offset="1" stop-color="#08293B"/>
        </linearGradient>
        <clipPath id="c">
            <path fill="#fff" d="M6.307 21.353h251.487v238.294H6.307z"/>
        </clipPath>
        <clipPath id="f">
            <path fill="#fff" d="M6.307 21.353h251.487v238.294H6.307z"/>
        </clipPath>
    </defs>
</svg>