<svg height="852" viewBox="0 0 393 852" fill="none"
    xmlns="http://www.w3.org/2000/svg">
    <g clip-path="url(#a)">
        <path fill="#FAF8EB" d="M0 0h393v852H0z"/>
        <g filter="url(#b)">
            <path d="M175.894 45.434c.632-34.046-9.046-67.122-27.718-94.738-18.672-27.615-45.434-48.433-76.652-59.625-31.218-11.191-65.38-12.216-97.846-2.933-32.466 9.283-61.663 28.422-83.628 54.82-21.964 26.397-35.63 58.773-39.143 92.732-3.513 33.96 3.297 67.855 19.506 97.085 16.21 29.23 41.032 52.378 71.098 66.301 30.065 13.923 63.917 17.945 96.957 11.522L12.964 47.716l162.93-2.282Z" fill="#FF948B"/>
        </g>
        <g filter="url(#c)">
            <path d="M247.172 92.323c31.565 12.774 65.913 15.575 98.382 8.023 32.47-7.552 61.486-25.092 83.109-50.237 21.623-25.145 34.805-56.677 37.756-90.315 2.952-33.638-4.471-67.751-21.26-97.708-16.788-29.956-42.129-54.305-72.581-69.738-30.453-15.434-64.541-21.205-97.636-16.531-33.095 4.675-63.594 19.569-87.354 42.661-23.761 23.091-39.632 53.261-45.458 86.412l161.221 34.478-56.179 152.955Z" fill="#40C49E"/>
        </g>
        <g filter="url(#d)">
            <path d="M4.025 628.877c-28.672 4.655-55.4 16.581-77.511 34.586-22.111 18.005-38.829 41.458-48.481 68.011-9.652 26.553-11.901 55.276-6.52 83.296 5.381 28.019 18.202 54.352 37.18 76.364 18.98 22.012 43.45 38.931 70.965 49.065 27.514 10.134 57.108 13.127 85.82 8.68 28.712-4.447 55.535-16.179 77.786-34.021 22.252-17.842 39.151-41.169 49.007-67.647L35.358 788.782 4.025 628.877Z" fill="#40C49E"/>
        </g>
    </g>
    <defs>
        <filter id="b" x="-232.495" y="-200.645" width="490.917" height="496.721" filterUnits="userSpaceOnUse" color-interpolation-filters="sRGB">
            <feFlood flood-opacity="0" result="BackgroundImageFix"/>
            <feBlend in="SourceGraphic" in2="BackgroundImageFix" result="shape"/>
            <feGaussianBlur stdDeviation="41.25" result="effect1_foregroundBlur_211_1371"/>
        </filter>
        <filter id="c" x="59.63" y="-308.261" width="489.922" height="495.257" filterUnits="userSpaceOnUse" color-interpolation-filters="sRGB">
            <feFlood flood-opacity="0" result="BackgroundImageFix"/>
            <feBlend in="SourceGraphic" in2="BackgroundImageFix" result="shape"/>
            <feGaussianBlur stdDeviation="41.25" result="effect1_foregroundBlur_211_1371"/>
        </filter>
        <filter id="d" x="-213.843" y="546.377" width="488.614" height="487.004" filterUnits="userSpaceOnUse" color-interpolation-filters="sRGB">
            <feFlood flood-opacity="0" result="BackgroundImageFix"/>
            <feBlend in="SourceGraphic" in2="BackgroundImageFix" result="shape"/>
            <feGaussianBlur stdDeviation="41.25" result="effect1_foregroundBlur_211_1371"/>
        </filter>
        <clipPath id="a">
            <path fill="#fff" d="M0 0h393v852H0z"/>
        </clipPath>
    </defs>
</svg>