<svg xmlns="http://www.w3.org/2000/svg" xmlns:xsi="http://www.w3.org/2001/XMLSchema-instance" width="221" height="48" viewBox="0 0 221 48" fill="none">
    <path d="M103.869 4.2458C103.867 4.99447 103.643 5.72572 103.226 6.34716C102.808 6.96861 102.216 7.45237 101.524 7.73732C100.832 8.02228 100.071 8.09564 99.3369 7.94814C98.6031 7.80064 97.9294 7.4389 97.4011 6.90862C96.8727 6.37834 96.5133 5.70332 96.3684 4.96883C96.2234 4.23434 96.2993 3.47334 96.5865 2.78198C96.8737 2.09062 97.3593 1.49991 97.982 1.08449C98.6046 0.669074 99.3364 0.447582 100.085 0.447999C100.583 0.447996 101.076 0.54632 101.536 0.737333C101.996 0.928346 102.414 1.20829 102.765 1.56112C103.117 1.91394 103.395 2.33271 103.585 2.7934C103.774 3.2541 103.871 3.74766 103.869 4.2458Z" fill="#40C49E"/>
    <path d="M111.944 26.0815V42.4572C110.78 44.026 109.294 45.3281 107.586 46.2765C105.878 47.2249 103.988 47.7977 102.041 47.9567C100.094 48.1156 98.1356 47.8571 96.2967 47.1982C94.4577 46.5394 92.7805 45.4956 91.3771 44.1364C91.5229 43.7072 91.5947 43.2564 91.5894 42.8032V24.2006C93.003 22.8847 94.6783 21.8821 96.5059 21.2582C98.3334 20.6342 100.272 20.4031 102.195 20.5798C104.118 20.7565 105.982 21.3371 107.665 22.2837C109.348 23.2303 110.813 24.5215 111.963 26.073" fill="#40C49E"/>
    <path d="M15.4587 20.6129C14.7562 20.377 14.0368 20.1946 13.3067 20.0674C12.6163 19.9475 11.917 19.8864 11.2163 19.8848C10.3344 19.8788 9.45641 20.0018 8.61012 20.2499C7.87013 20.4527 7.19291 20.8381 6.64064 21.3708C6.38531 21.6313 6.18629 21.9416 6.05595 22.2823C5.92561 22.6231 5.86673 22.987 5.88299 23.3514C5.88759 23.6224 5.94933 23.8894 6.06416 24.1348C6.179 24.3803 6.34434 24.5987 6.54938 24.7759C7.05146 25.2389 7.62472 25.618 8.24721 25.8989C8.93342 26.2215 9.64085 26.5145 10.3695 26.7777C11.0982 27.041 11.7447 27.2533 12.3093 27.4146C14.1247 28.0098 15.8974 28.7283 17.615 29.5651C19.0983 30.2648 20.4042 31.291 21.4351 32.5668C22.3831 33.7782 22.8577 35.335 22.8592 37.2371C22.8911 38.872 22.4028 40.4747 21.4648 41.814C20.5042 43.1531 19.1936 44.2019 17.6765 44.8454C16.0806 45.553 14.2321 45.9068 12.131 45.9068C10.4083 45.8924 8.69527 45.6476 7.03751 45.1787C5.20569 44.6726 3.43714 43.9605 1.76575 43.0558C0.83336 42.5619 0.275906 41.9519 0.0933898 41.2259C-0.0913916 40.5329 -0.00406759 39.7953 0.337453 39.1646C0.665821 38.5305 1.23088 38.0515 1.91007 37.8315C2.6175 37.5881 3.41547 37.7091 4.30401 38.1945C5.16161 38.6649 6.05336 39.07 6.97172 39.4066C7.83097 39.7224 8.71188 39.9757 9.6076 40.1645C10.4342 40.3426 11.277 40.4344 12.1225 40.4383C12.9927 40.4459 13.8597 40.333 14.699 40.1029C15.4182 39.9189 16.0832 39.5659 16.6387 39.0733C16.892 38.8386 17.0914 38.5517 17.2232 38.2326C17.3551 37.9134 17.4164 37.5694 17.4028 37.2243C17.4028 36.3752 17.0186 35.6577 16.2504 35.0718C15.4108 34.4483 14.4802 33.9578 13.4914 33.6176C12.4203 33.2341 11.4604 32.9008 10.6114 32.6177C8.8525 32.0283 7.13221 31.3292 5.46065 30.5246C4.04921 29.8738 2.79689 28.9225 1.79122 27.7373C0.88005 26.6249 0.424466 25.1629 0.424466 23.3514C0.390413 21.6869 0.878792 20.0536 1.82093 18.6811C2.79026 17.3154 4.11001 16.2366 5.64105 15.5584C7.25681 14.8098 9.11523 14.4354 11.2163 14.4354C12.6656 14.4424 14.1094 14.6133 15.5203 14.9449C17.0955 15.3186 18.6207 15.878 20.0641 16.6114C20.9526 17.0572 21.5087 17.6332 21.7322 18.3394C21.9562 19.0113 21.9109 19.7439 21.6056 20.383C21.3004 21.0221 20.7592 21.5177 20.0959 21.7657C19.3885 22.0487 18.57 21.9475 17.6405 21.4621C16.9118 21.1394 16.1846 20.8564 15.4587 20.6129Z" fill="#08293B"/>
    <path d="M32.246 19.9549V42.8011C32.2788 43.4992 32.0877 44.1894 31.7006 44.7711C31.3738 45.2506 30.8931 45.6041 30.3381 45.7731C29.8046 45.9345 29.2353 45.9345 28.7018 45.7731C28.1465 45.6035 27.6654 45.2502 27.3372 44.7711C26.951 44.189 26.76 43.4991 26.7917 42.8011V29.5863C26.7668 27.5127 27.1052 25.4507 27.7913 23.4937C28.4131 21.7304 29.3702 20.1041 30.6097 18.7045C31.7929 17.3726 33.2378 16.2987 34.8543 15.55C36.4884 14.8011 38.2671 14.4207 40.0645 14.4355C41.4707 14.4244 42.8672 14.6689 44.186 15.1572C45.4918 15.6498 46.672 16.4263 47.6411 17.4308C48.6985 18.5388 49.5049 19.8616 50.0053 21.3093C50.5712 22.8661 50.8542 24.7158 50.8542 26.8584V42.8011C50.886 43.4991 50.6949 44.189 50.3088 44.7711C49.9801 45.2497 49.4991 45.6029 48.9442 45.7731C48.4107 45.9345 47.8414 45.9345 47.3079 45.7731C46.7529 45.6029 46.2719 45.2497 45.9432 44.7711C45.5571 44.189 45.3661 43.4991 45.3978 42.8011V29.5863C45.3726 27.5125 45.7116 25.4503 46.3995 23.4937C47.0206 21.7305 47.9769 20.1042 49.2158 18.7045C50.3991 17.3727 51.844 16.2989 53.4604 15.55C55.0952 14.8008 56.8746 14.4203 58.6727 14.4355C60.0786 14.4266 61.4744 14.6734 62.7921 15.1636C64.0982 15.6556 65.2784 16.4323 66.2472 17.4372C67.3046 18.5452 68.111 19.868 68.6114 21.3157C69.1773 22.8724 69.4603 24.7221 69.4603 26.8648V42.8075C69.4603 43.818 69.1872 44.5865 68.6411 45.1129C68.1336 45.618 67.4469 45.9015 66.731 45.9015C66.0152 45.9015 65.3284 45.618 64.821 45.1129C64.2763 44.5865 64.0039 43.818 64.0039 42.8075V26.8648C64.0039 25.2062 63.7917 23.8723 63.3672 22.8632C63.0151 21.9384 62.3772 21.1501 61.5463 20.613C60.6738 20.1062 59.6769 19.854 58.6685 19.8849C57.5733 19.8718 56.4848 20.0566 55.4553 20.4304C54.5177 20.7745 53.6687 21.3235 52.9701 22.0374C52.257 22.7892 51.7193 23.6896 51.3954 24.674C51.0094 25.8678 50.8251 27.1176 50.85 28.372V42.8075C50.8817 43.5054 50.6907 44.1954 50.3045 44.7775C49.9758 45.2561 49.4949 45.6092 48.9399 45.7795C48.4064 45.9409 47.8371 45.9409 47.3036 45.7795C46.7487 45.6092 46.2677 45.2561 45.939 44.7775C45.5528 44.1954 45.3618 43.5054 45.3936 42.8075V26.8648C45.3936 25.2062 45.1813 23.8723 44.7569 22.8632C44.4057 21.9408 43.7692 21.1547 42.9402 20.6194C42.067 20.1126 41.0694 19.8604 40.0603 19.8912C38.9658 19.8784 37.8781 20.0632 36.8492 20.4368C35.9114 20.7804 35.0623 21.3294 34.3641 22.0438C33.651 22.796 33.1126 23.6963 32.7872 24.6804C32.4022 25.8744 32.2179 27.1241 32.2418 28.3784V42.8139C32.2746 43.5119 32.0834 44.2022 31.6963 44.7839C31.3695 45.2634 30.8888 45.6169 30.3338 45.7859C29.8003 45.9472 29.2311 45.9472 28.6975 45.7859C28.1423 45.6162 27.6611 45.2629 27.3329 44.7839C26.9468 44.2017 26.7557 43.5118 26.7875 42.8139V17.4605C26.7875 16.4501 27.0606 15.6922 27.6067 15.187C28.1234 14.6997 28.8067 14.4283 29.5168 14.4283C30.2269 14.4283 30.9101 14.6997 31.4268 15.187C31.9715 15.6922 32.2439 16.4501 32.2439 17.4605L32.246 19.9549Z" fill="#08293B"/>
    <path d="M74.6726 39.5468V14.2232C74.6726 13.0995 74.945 12.256 75.4897 11.6927C75.7314 11.4261 76.0262 11.2131 76.3552 11.0673C76.6841 10.9215 77.0399 10.8462 77.3997 10.8462C77.7595 10.8462 78.1154 10.9215 78.4443 11.0673C78.7733 11.2131 79.0681 11.4261 79.3098 11.6927C79.8545 12.2588 80.1276 13.1023 80.129 14.2232V42.4572C80.129 43.5894 79.8559 44.4442 79.3098 45.0216C79.0729 45.2963 78.7797 45.517 78.4502 45.6686C78.1207 45.8202 77.7625 45.8993 77.3997 45.9005C77.0398 45.9 76.6839 45.8243 76.3549 45.678C76.026 45.5318 75.7313 45.3183 75.4897 45.0514C74.945 44.4853 74.6726 43.6191 74.6726 42.453V39.5468Z" fill="#08293B"/>
    <path d="M90.7638 0.789694C90.2566 0.284124 89.5698 0.000244141 88.8537 0.000244141C88.1377 0.000244141 87.4509 0.284124 86.9437 0.789694C86.3989 1.31475 86.1266 2.08252 86.1266 3.093V42.8011C86.1266 43.8116 86.3989 44.5801 86.9437 45.1065C87.4514 45.6111 88.138 45.8942 88.8537 45.8942C89.5694 45.8942 90.2561 45.6111 90.7638 45.1065C91.042 44.8353 91.2522 44.5022 91.3771 44.1343C90.0375 42.8375 88.9762 41.2812 88.2579 39.5605C87.5396 37.8397 87.1793 35.9906 87.1992 34.126C87.2191 32.2614 87.6186 30.4204 88.3734 28.7154C89.1282 27.0103 90.2224 25.4771 91.5893 24.2091V3.093C91.5893 2.08252 91.317 1.31475 90.7723 0.789694" fill="#08293B"/>
    <path d="M91.5809 24.2007V42.7927C91.5862 43.2459 91.5144 43.6967 91.3686 44.1259C90.0291 42.8291 88.9677 41.2728 88.2494 39.5521C87.5311 37.8313 87.1709 35.9822 87.1907 34.1176C87.2106 32.253 87.6101 30.412 88.3649 28.707C89.1197 27.0019 90.214 25.4686 91.5809 24.2007Z" fill="#40C49E"/>
    <path d="M97.5573 39.5468V14.2232C97.5573 13.0995 97.8303 12.256 98.3765 11.6927C98.6182 11.4261 98.913 11.2131 99.2419 11.0673C99.5709 10.9215 99.9267 10.8462 100.287 10.8462C100.646 10.8462 101.002 10.9215 101.331 11.0673C101.66 11.2131 101.955 11.4261 102.197 11.6927C102.743 12.2588 103.015 13.1023 103.014 14.2232V42.4572C103.014 43.5894 102.741 44.4442 102.197 45.0216C101.96 45.2963 101.666 45.517 101.337 45.6686C101.007 45.8202 100.649 45.8993 100.287 45.9005C99.9265 45.9 99.5706 45.8243 99.2417 45.678C98.9127 45.5318 98.618 45.3183 98.3765 45.0514C97.8317 44.4853 97.5587 43.6191 97.5573 42.453V39.5468Z" fill="#08293B"/>
    <path d="M116.581 10.8118C116.052 10.3499 115.374 10.0955 114.671 10.0955C113.969 10.0955 113.291 10.3499 112.761 10.8118C112.214 11.2901 111.941 11.9878 111.942 12.9049V27.888C113.688 29.97 114.645 32.6006 114.645 35.3181C114.645 38.0355 113.688 40.6661 111.942 42.7481V43.0622C111.942 44.0175 112.215 44.7252 112.761 45.1851C113.293 45.6392 113.972 45.8837 114.671 45.8729C115.375 45.8813 116.056 45.6261 116.581 45.1575C117.126 44.6806 117.398 43.9829 117.398 43.0644V12.9049C117.398 11.9878 117.126 11.2901 116.581 10.8118ZM124.009 15.8535C123.483 15.3073 122.716 15.0348 121.707 15.0362H108.251C107.241 15.0362 106.474 15.3087 105.949 15.8535C105.444 16.3611 105.16 17.0481 105.16 17.7641C105.16 18.4802 105.444 19.1671 105.949 19.6747C106.474 20.2196 107.241 20.4927 108.251 20.4941H121.707C122.717 20.4941 123.485 20.221 124.009 19.6747C124.514 19.1671 124.798 18.4802 124.798 17.7641C124.798 17.0481 124.514 16.3611 124.009 15.8535Z" fill="#08293B"/>
    <path d="M114.65 34.2672C114.655 37.2177 113.706 40.0908 111.944 42.4572V26.0814C113.706 28.4465 114.655 31.318 114.65 34.2672Z" fill="#40C49E"/>
    <path d="M153.127 20.734V31.4651C153.127 33.7691 152.764 35.8098 152.036 37.5874C151.357 39.2961 150.316 40.8374 148.985 42.1048C147.656 43.3476 146.088 44.3068 144.377 44.924C142.539 45.584 140.599 45.9125 138.647 45.8941C136.668 45.9107 134.707 45.5183 132.887 44.7414C131.121 43.985 129.531 42.8703 128.218 41.468C126.864 40.0235 125.813 38.3231 125.126 36.4665C124.379 34.4391 124.01 32.2923 124.035 30.1319C124.035 27.0608 124.672 24.3429 125.945 21.978C127.145 19.6889 128.948 17.771 131.157 16.431C133.399 15.0867 135.972 14.3956 138.585 14.4355C140.552 14.416 142.502 14.7981 144.315 15.5585C146.058 16.2954 147.627 17.3896 148.921 18.7704C150.259 20.2044 151.308 21.8821 152.013 23.7124C152.781 25.7245 153.161 27.8638 153.134 30.0173V43.4762C153.134 44.4867 152.861 45.2545 152.314 45.7795C151.807 46.2846 151.12 46.5681 150.404 46.5681C149.688 46.5681 149.002 46.2846 148.494 45.7795C147.95 45.253 147.677 44.4853 147.677 43.4762V30.0173C147.71 28.1929 147.316 26.3862 146.525 24.742C145.814 23.2695 144.7 22.0291 143.312 21.1649C141.888 20.3019 140.249 19.8602 138.585 19.8912C137.313 19.8786 136.053 20.137 134.888 20.6491C133.784 21.1365 132.801 21.8613 132.008 22.7719C131.195 23.7279 130.568 24.8282 130.16 26.0157C129.271 28.6922 129.271 31.5843 130.16 34.2609C130.575 35.4608 131.213 36.5714 132.04 37.5343C132.838 38.4579 133.831 39.193 134.948 39.6869C136.113 40.1986 137.374 40.4562 138.647 40.4426C139.89 40.4565 141.127 40.273 142.312 39.8992C143.382 39.5593 144.365 38.9899 145.192 38.2306C146.021 37.4495 146.655 36.4836 147.04 35.4115C147.487 34.1469 147.703 32.8123 147.677 31.4714V17.8321C147.677 16.8244 147.95 16.0566 148.494 15.5287C149.002 15.0237 149.688 14.7402 150.404 14.7402C151.12 14.7402 151.807 15.0237 152.314 15.5287C152.861 16.0552 153.134 16.823 153.134 17.8321L153.127 20.734Z" fill="#08293B"/>
    <path d="M158.764 40.0732V3.093C158.764 2.08252 159.036 1.31475 159.581 0.789694C160.088 0.284124 160.775 0.000244141 161.491 0.000244141C162.207 0.000244141 162.894 0.284124 163.401 0.789694C163.947 1.31475 164.22 2.08252 164.218 3.093V42.7905C164.218 43.801 163.946 44.5694 163.401 45.0959C162.893 45.6005 162.207 45.8836 161.491 45.8836C160.775 45.8836 160.089 45.6005 159.581 45.0959C159.036 44.5694 158.764 43.801 158.764 42.7905V40.0732Z" fill="#08293B"/>
    <path d="M175.672 5.85066V42.8012C175.672 43.8116 175.4 44.5801 174.855 45.1066C174.605 45.3582 174.307 45.5575 173.979 45.6927C173.651 45.8279 173.3 45.8964 172.945 45.8942C172.234 45.9008 171.548 45.6288 171.035 45.1363C170.49 44.6311 170.218 43.8527 170.218 42.8012V3.10367C170.218 2.09319 170.49 1.33533 171.035 0.83009C171.552 0.343321 172.235 0.0722656 172.945 0.0722656C173.655 0.0722656 174.338 0.343321 174.855 0.83009C175.401 1.33533 175.674 2.09319 175.672 3.10367V5.85066ZM189.34 22.1288C188.188 22.9779 187.017 23.827 185.825 24.6762C184.634 25.5253 183.431 26.3943 182.217 27.2831C181.247 28.0119 180.601 28.4874 180.28 28.7096C179.955 28.9219 179.955 29.1745 180.28 29.4356C180.604 29.6967 181.228 30.1935 182.158 30.9216C183.41 31.9321 184.693 32.9936 186.006 34.1059C187.319 35.2183 188.602 36.3399 189.855 37.4707C191.108 38.6029 192.319 39.7145 193.491 40.8057C194.259 41.4935 194.643 42.211 194.643 42.9583C194.654 43.6645 194.392 44.3477 193.912 44.866C193.433 45.3843 192.772 45.6977 192.067 45.7413C191.32 45.8022 190.583 45.4894 189.855 44.803C188.724 43.7925 187.532 42.7311 186.279 41.6187L182.517 38.2858C181.264 37.1735 180.012 36.1326 178.76 35.1631C177.102 33.871 175.859 32.7296 175.031 31.7389C174.204 30.7483 173.798 29.8185 173.815 28.9495C173.834 28.082 174.268 27.1727 175.118 26.2216C175.969 25.2706 177.242 24.1688 178.938 22.9163C180.191 21.9879 181.413 21.0992 182.606 20.25C183.798 19.4009 184.971 18.5623 186.124 17.7344C187.278 16.9065 188.379 16.0878 189.429 15.2783C190.235 14.6711 191.014 14.4284 191.763 14.5501C192.113 14.5979 192.449 14.7167 192.752 14.8992C193.054 15.0817 193.316 15.3242 193.521 15.6116C193.945 16.1895 194.129 16.9089 194.036 17.6198C193.956 18.3699 193.511 19.0471 192.704 19.6514C191.613 20.4609 190.491 21.2895 189.34 22.1372" fill="#08293B"/>
    <path d="M202.946 15.0362H217.855C218.396 15.0236 218.934 15.1271 219.432 15.3397C219.854 15.5245 220.22 15.8174 220.493 16.1889C220.756 16.5563 220.922 16.9842 220.977 17.4329C221.034 17.9355 220.972 18.4445 220.796 18.9189C220.583 19.498 220.264 20.0328 219.856 20.4962L217.643 23.0733C216.896 23.9423 216.188 24.7709 215.52 25.5592C214.852 26.3475 214.236 27.0848 213.672 27.7712C213.106 28.418 212.439 29.2162 211.67 30.1658C210.902 31.1154 210.124 32.0651 209.336 33.0147C208.548 33.9657 207.871 34.7639 207.305 35.4093C206.902 35.8947 206.559 36.2987 206.276 36.6214C205.993 36.9441 205.75 37.2172 205.548 37.4408L204.973 38.0777C204.79 38.29 204.578 38.5235 204.336 38.8058C204.124 39.0075 203.973 39.1795 203.85 39.3196C203.763 39.4088 203.692 39.5113 203.638 39.6231C203.616 39.6854 203.646 39.7257 203.727 39.7441C203.857 39.7689 203.989 39.7789 204.121 39.7739H217.303C218.233 39.7739 218.93 40.047 219.396 40.5933C219.845 41.1286 220.091 41.805 220.091 42.5039C220.091 43.2027 219.845 43.8792 219.396 44.4144C218.93 44.9593 218.233 45.2325 217.303 45.2339H199.007C198.459 45.248 197.916 45.1223 197.43 44.8687C197.005 44.645 196.649 44.3096 196.401 43.8986C196.155 43.4837 196.009 43.0169 195.976 42.5357C195.941 41.9986 196.023 41.4602 196.218 40.9584C196.438 40.3802 196.745 39.839 197.129 39.3535C197.854 38.5044 198.571 37.6354 199.278 36.7467C199.986 35.8579 200.673 34.9889 201.339 34.1398C202.006 33.2907 202.622 32.5427 203.188 31.8959C203.754 31.2081 204.37 30.4708 205.036 29.6839L207.492 26.7735C208.462 25.6201 209.674 24.1949 211.127 22.498C212.038 21.4507 212.868 20.3366 213.612 19.1651C214.178 18.2353 214.633 17.4669 214.977 16.8597C215.254 16.3337 215.635 15.8699 216.098 15.4968C216.501 15.1933 217.089 15.0425 217.855 15.0425C218.396 15.03 218.934 15.1335 219.432 15.3461C219.854 15.5308 220.22 15.8237 220.493 16.1953C220.756 16.5627 220.922 16.9905 220.977 17.4393C221.034 17.9419 220.972 18.4509 220.796 18.9253C220.583 19.5044 220.264 20.0391 219.856 20.5025C219.29 21.1493 218.714 21.5229 218.129 21.6234C217.469 21.7199 216.796 21.6684 216.159 21.4727C215.432 21.2717 214.583 21.0594 213.612 20.8358C212.496 20.5993 211.357 20.4876 210.217 20.5025H199.249C198.359 20.5025 197.682 20.2294 197.218 19.6831C196.769 19.1478 196.522 18.4714 196.522 17.7725C196.522 17.0737 196.769 16.3973 197.218 15.862C197.683 15.3157 198.36 15.0433 199.249 15.0447L202.946 15.0362Z" fill="#08293B"/>
    <path d="M118.409 4.2458C118.407 4.99437 118.183 5.72554 117.765 6.34694C117.348 6.96834 116.756 7.4521 116.064 7.73712C115.372 8.02214 114.611 8.09562 113.877 7.9483C113.144 7.80097 112.47 7.43944 111.942 6.90937C111.413 6.37931 111.054 5.70448 110.908 4.97013C110.763 4.23578 110.839 3.47485 111.126 2.78345C111.413 2.09205 111.898 1.5012 112.52 1.08552C113.143 0.66985 113.874 0.448001 114.623 0.447998C115.121 0.447996 115.614 0.546305 116.074 0.737292C116.534 0.928279 116.952 1.20819 117.304 1.56099C117.655 1.91379 117.934 2.33254 118.124 2.79324C118.313 3.25395 118.41 3.74756 118.409 4.2458Z" fill="#FF948B"/>
    <path d="M81.2687 4.2458C81.2666 4.99437 81.0428 5.72554 80.6255 6.34694C80.2082 6.96834 79.6161 7.4521 78.9241 7.73712C78.2321 8.02214 77.4712 8.09562 76.7374 7.9483C76.0037 7.80097 75.33 7.43944 74.8016 6.90937C74.2732 6.37931 73.9136 5.70448 73.7684 4.97013C73.6232 4.23578 73.6988 3.47485 73.9856 2.78345C74.2725 2.09205 74.7578 1.5012 75.3802 1.08552C76.0026 0.66985 76.7342 0.448001 77.4826 0.447998C77.9807 0.447996 78.4739 0.546305 78.9339 0.737292C79.394 0.928279 79.8118 1.20819 80.1635 1.56099C80.5152 1.91379 80.7939 2.33254 80.9836 2.79324C81.1732 3.25395 81.2701 3.74756 81.2687 4.2458Z" fill="#FF948B"/>
</svg>
